<svg width="66" height="67" viewBox="0 0 66 67" fill="none" xmlns="http://www.w3.org/2000/svg">
<mask id="mask0_122_137" style="mask-type:luminance" maskUnits="userSpaceOnUse" x="0" y="0" width="67" height="67">
<path d="M66.0078 0.861084H0.0078125V66.8611H66.0078V0.861084Z" fill="white"/>
<path fill-rule="evenodd" clip-rule="evenodd" d="M18.9171 2.86108V5.80859H17.521V12.4792H18.9171V16.978H16.1248V18.5293H14.5735V19.9255H13.3324V21.3217H11.7811V23.8038H13.3324V25.5102C12.8395 25.5102 12.274 25.5102 11.7811 25.5102V26.9064H9.14385V28.4577H7.75612V29.8539H6.19636V31.2501H4.80017V32.9565L4.80941 33.8873H5.42311L6.04122 33.8794V32.4911H7.43741V31.095H10.3849V29.5437H14.6928H18.9731V30.3193V31.095H19.6735H20.3739V31.7845V32.4741L21.1132 32.5214L21.8525 32.5687L21.9003 33.228L21.9482 33.8873H22.6396H23.3311V36.7573V39.6272H24.0315H24.7319V43.1867V46.7462H25.4326V49.8658H24.657V55.7608H24.0315H23.3311V56.4589V57.157H19.6735H16.0158V56.4589V55.7608H13.1773V54.2095H10.3849H10.3877V52.8133H9.7122H8.98379V54.2095H6.04122L6.03744 52.8133H4.33478V51.5723H3.25297L3.24886 35.5938H2.00781V52.6582H3.40861V54.0544H4.8026V55.6057H6.19636V57.0019H8.98872V58.3981H17.3658V62.7417H18.9171V64.1379H30.4129H41.8766V62.5866H43.2536H44.6689V61.1904H46.7556H48.8568V59.7942H49.8776H50.719V58.3981H53.6665V57.0019H54.5973V55.916H61.4231V41.4888H63.5949V38.3861H62.1988V35.5938H60.8026V31.2501H59.4064V28.4577H57.8551V27.0616H56.4589L56.4716 24.1141H55.0627V21.3217H53.6665V18.5293H52.2704V16.8229H52.2646H52.9732H53.6665V15.4267H55.0654L55.0627 13.8754H56.4589L56.4833 5.80859H55.373V12.6343H53.9768V14.1857H52.4255L52.4366 14.8923V15.5818H51.6527H50.8689L50.8742 12.6343H52.4255L52.4366 8.44582H53.8374V5.65346H55.0825V4.25728H53.6665V2.8611H49.168V4.25728H47.7716V5.65346H46.3754V7.20477H44.8241V11.2382H41.7214L41.7272 9.99713H27.6045V11.3933H25.7429V5.65344H24.3467V4.25726L22.9505 4.25728V2.8611L18.9171 2.86108ZM37.2226 27.0616V27.2167H36.3274H35.5162V27.8372H33.9649V29.6988H35.8264V29.0783H37.3391V28.768H43.9798H45.7548V29.3885H46.6777H47.6116V28.4577V27.5269H45.91V27.0616H37.2226ZM17.0556 38.3861V39.7823H15.666V41.3336H14.2632V43.8157H15.8145V45.367H18.4517V43.8157H19.8479V38.3861H17.0556Z" fill="black"/>
<path d="M2.01623 34.1976L2.00781 35.5938H4.65346V34.3527H6.04964L6.04122 33.8794L5.42912 33.4141L4.80017 32.9565H3.41241V34.1976H2.01623Z" fill="black"/>
<path d="M5.90832 38.9135V38.2134V37.4553H4.03219V38.6964H3.10547V40.2269V42.9403L4.5069 42.9582V44.4363H7.13478V42.8849H8.68609V40.4028H7.29261V38.9135H6.60047H5.90832Z" fill="black"/>
</mask>
<g mask="url(#mask0_122_137)">
<path d="M18.9177 2.8612V0.975836L17.0324 0.97583V2.8612H18.9177ZM18.9177 5.80871V7.69408H20.8031V5.80871H18.9177ZM17.5216 5.80871V3.92334H15.6362V5.80871H17.5216ZM17.5216 12.4793H15.6362V14.3647H17.5216V12.4793ZM18.9177 12.4793H20.8031V10.5939H18.9177V12.4793ZM18.9177 16.9781V18.8635H20.8031V16.9781H18.9177ZM16.1254 16.9781V15.0928H14.24V16.9781H16.1254ZM16.1254 18.5294V20.4148H18.0107V18.5294H16.1254ZM14.5741 18.5294V16.6441H12.6887V18.5294H14.5741ZM14.5741 19.9256V21.811H16.4594V19.9256H14.5741ZM13.333 19.9256V18.0402H11.4476V19.9256H13.333ZM13.333 21.3218V23.2072H15.2184V21.3218H13.333ZM11.7817 21.3218V19.4364H9.89631V21.3218H11.7817ZM11.7817 23.8039H9.89631V25.6893H11.7817V23.8039ZM13.333 23.8039H15.2184V21.9185H13.333V23.8039ZM13.333 25.5103V27.3957H15.2184V25.5103H13.333ZM11.7817 25.5103V23.625H9.89631V25.5103H11.7817ZM11.7817 26.9065V28.7919H13.6671V26.9065H11.7817ZM9.14445 26.9065V25.0212H7.25908V26.9065H9.14445ZM9.14445 28.4578V30.3432H11.0298V28.4578H9.14445ZM7.75672 28.4578V26.5725H5.87135V28.4578H7.75672ZM7.75672 29.854V31.7394H9.64208V29.854H7.75672ZM6.19696 29.854V27.9686H4.31159V29.854H6.19696ZM6.19696 31.2502V33.1356H8.08232V31.2502H6.19696ZM4.80077 31.2502V29.3648H2.91541V31.2502H4.80077ZM4.81001 33.8874L2.92473 33.9061L2.94325 35.7728H4.81001V33.8874ZM5.42371 33.8874V35.7728H5.43573L5.44774 35.7726L5.42371 33.8874ZM6.04182 32.4912V30.6059H4.15646V32.4912H6.04182ZM7.43801 32.4912V34.3766H9.32338V32.4912H7.43801ZM7.43801 31.0951V29.2097H5.55264V31.0951H7.43801ZM10.3855 31.0951V32.9804H12.2709V31.0951H10.3855ZM10.3855 29.5438V27.6584H8.50013V29.5438H10.3855ZM18.9737 29.5438H20.859V27.6584H18.9737V29.5438ZM18.9737 31.0951H17.0883V32.9804H18.9737V31.0951ZM20.3745 31.0951H22.2598V29.2097H20.3745V31.0951ZM20.3745 32.4742H18.4891V34.2428L20.254 34.3557L20.3745 32.4742ZM21.8531 32.5688L23.7335 32.4325L23.6146 30.7923L21.9735 30.6873L21.8531 32.5688ZM21.9488 33.8874L20.0684 34.0241L20.1955 35.7728H21.9488V33.8874ZM23.3317 33.8874H25.2171V32.0021H23.3317V33.8874ZM23.3317 39.6273H21.4463V41.5127H23.3317V39.6273ZM24.7325 39.6273H26.6179V37.7419H24.7325V39.6273ZM24.7325 46.7463H22.8471V48.6316H24.7325V46.7463ZM25.4332 49.8659V51.7513H27.3186V49.8659H25.4332ZM24.6576 49.8659V47.9806H22.7722V49.8659H24.6576ZM24.6576 55.7609V57.6463H26.543V55.7609H24.6576ZM23.3317 55.7609V53.8756H21.4463V55.7609H23.3317ZM23.3317 57.1571V59.0425H25.2171V57.1571H23.3317ZM16.0164 57.1571H14.131V59.0425H16.0164V57.1571ZM16.0164 55.7609H17.9018V53.8756H16.0164V55.7609ZM13.1779 55.7609H11.2925V57.6463H13.1779V55.7609ZM13.1779 54.2096H15.0633V52.3243H13.1779V54.2096ZM10.3883 54.2096V56.095H12.2737V54.2096H10.3883ZM10.3883 52.8134H12.2737V50.9281H10.3883V52.8134ZM8.98439 52.8134V50.9281H7.09902V52.8134H8.98439ZM8.98439 54.2096V56.095H10.8698V54.2096H8.98439ZM6.04182 54.2096L4.15646 54.2147L4.16156 56.095H6.04182V54.2096ZM6.03804 52.8134L7.9234 52.8083L7.9183 50.9281H6.03804V52.8134ZM4.33538 52.8134H2.45001V54.6988H4.33538V52.8134ZM4.33538 51.5724H6.22075V49.687H4.33538V51.5724ZM3.25357 51.5724L1.3682 51.5729L1.36868 53.4578H3.25357V51.5724ZM3.24946 35.5939L5.13483 35.5934L5.13435 33.7085H3.24946V35.5939ZM2.00841 35.5939L0.123047 35.5825V35.5939H2.00841ZM2.00841 52.6583H0.123047V54.5437H2.00841V52.6583ZM3.40921 52.6583H5.29458V50.7729H3.40921V52.6583ZM3.40921 54.0545H1.52384V55.9399H3.40921V54.0545ZM4.8032 54.0545H6.68857V52.1691H4.8032V54.0545ZM4.8032 55.6058H2.91783V57.4912H4.8032V55.6058ZM6.19696 55.6058H8.08232V53.7204H6.19696V55.6058ZM6.19696 57.002H4.31159V58.8874H6.19696V57.002ZM8.98932 57.002H10.8747V55.1166H8.98932V57.002ZM8.98932 58.3982H7.10395V60.2835H8.98932V58.3982ZM17.3664 58.3982H19.2518V56.5128H17.3664V58.3982ZM17.3664 62.7418H15.4811V64.6272H17.3664V62.7418ZM18.9177 62.7418H20.8031V60.8565H18.9177V62.7418ZM18.9177 64.138H17.0324V66.0234H18.9177V64.138ZM41.8772 64.138V66.0234H43.7625V64.138H41.8772ZM41.8772 62.5867V60.7013H39.9918V62.5867H41.8772ZM44.6695 62.5867V64.4721H46.5549V62.5867H44.6695ZM44.6695 61.1905V59.3052H42.7842V61.1905H44.6695ZM48.8574 61.1905V63.0759H50.7427V61.1905H48.8574ZM48.8574 59.7943V57.909H46.972V59.7943H48.8574ZM50.7196 59.7943V61.6797H52.605V59.7943H50.7196ZM50.7196 58.3982V56.5128H48.8343V58.3982H50.7196ZM53.6671 58.3982V60.2835H55.5525V58.3982H53.6671ZM53.6671 57.002V55.1166H51.7818V57.002H53.6671ZM54.5979 57.002V58.8874H56.4833V57.002H54.5979ZM54.5979 55.9161V54.0307H52.7126V55.9161H54.5979ZM61.4237 55.9161V57.8014H63.3091V55.9161H61.4237ZM61.4237 41.4889V39.6035H59.5383V41.4889H61.4237ZM63.5955 41.4889V43.3742H65.4809V41.4889H63.5955ZM63.5955 38.3862H65.4809V36.5009H63.5955V38.3862ZM62.1994 38.3862H60.314V40.2716H62.1994V38.3862ZM62.1994 35.5939H64.0847V33.7085H62.1994V35.5939ZM60.8032 35.5939H58.9178V37.4792H60.8032V35.5939ZM60.8032 31.2502H62.6885V29.3648H60.8032V31.2502ZM59.407 31.2502H57.5216V33.1356H59.407V31.2502ZM59.407 28.4578H61.2924V26.5725H59.407V28.4578ZM57.8557 28.4578H55.9703V30.3432H57.8557V28.4578ZM57.8557 27.0617H59.7411V25.1763H57.8557V27.0617ZM56.4595 27.0617L54.5742 27.0535L54.566 28.947H56.4595V27.0617ZM56.4722 24.1142L58.3576 24.1223L58.3658 22.2288H56.4722V24.1142ZM55.0633 24.1142H53.178V25.9995H55.0633V24.1142ZM55.0633 21.3218H56.9487V19.4364H55.0633V21.3218ZM53.6671 21.3218H51.7818V23.2072H53.6671V21.3218ZM53.6671 18.5294H55.5525V16.6441H53.6671V18.5294ZM52.271 18.5294H50.3856V20.4148H52.271V18.5294ZM52.271 16.823H54.1563V14.9376H52.271V16.823ZM53.6671 16.823V18.7084H55.5525V16.823H53.6671ZM53.6671 15.4268V13.5414H51.7818V15.4268H53.6671ZM55.066 15.4268V17.3122H56.9546L56.9514 15.4235L55.066 15.4268ZM55.0633 13.8755V11.9901H53.1747L53.178 13.8788L55.0633 13.8755ZM56.4595 13.8755V15.7609H58.3392L58.3449 13.8812L56.4595 13.8755ZM56.4839 5.80871L58.3693 5.81442L58.375 3.92334H56.4839V5.80871ZM55.3736 5.80871V3.92334H53.4882V5.80871H55.3736ZM55.3736 12.6344V14.5198H57.259V12.6344H55.3736ZM53.9774 12.6344V10.7491H52.092V12.6344H53.9774ZM53.9774 14.1858V16.0711H55.8628V14.1858H53.9774ZM52.4261 14.1858V12.3004H50.5109L50.541 14.2153L52.4261 14.1858ZM52.4372 14.8924H54.3225V14.8776L54.3223 14.8628L52.4372 14.8924ZM52.4372 15.5819V17.4673H54.3225V15.5819H52.4372ZM50.8695 15.5819L48.9842 15.5786L48.9808 17.4673H50.8695V15.5819ZM50.8748 12.6344V10.7491H48.9928L48.9894 12.6311L50.8748 12.6344ZM52.4261 12.6344V14.5198H54.3065L54.3115 12.6394L52.4261 12.6344ZM52.4372 8.44594V6.56057H50.5568L50.5518 8.44095L52.4372 8.44594ZM53.838 8.44594V10.3313H55.7233V8.44594H53.838ZM53.838 5.65358V3.76821H51.9526V5.65358H53.838ZM55.0831 5.65358V7.53895H56.9685V5.65358H55.0831ZM55.0831 4.2574H56.9685V2.37203H55.0831V4.2574ZM53.6671 4.2574H51.7818V6.14277H53.6671V4.2574ZM53.6671 2.86122H55.5525V0.975849H53.6671V2.86122ZM49.1683 2.86122V0.975849H47.2825L47.283 2.86163L49.1683 2.86122ZM49.1686 4.2574V6.14277H51.0544L51.054 4.25698L49.1686 4.2574ZM47.7722 4.2574V2.37203H45.8868V4.2574H47.7722ZM47.7722 5.65358V7.53895H49.6575V5.65358H47.7722ZM46.376 5.65358V3.76821H44.4906V5.65358H46.376ZM46.376 7.20489V9.09026H48.2613V7.20489H46.376ZM44.8247 7.20489V5.31952H42.9393V7.20489H44.8247ZM44.8247 11.2383V13.1236H46.71V11.2383H44.8247ZM41.722 11.2383L39.8367 11.2296L39.8279 13.1236H41.722V11.2383ZM41.7278 9.99725L43.6131 10.0059L43.6218 8.11188H41.7278V9.99725ZM27.6051 9.99725V8.11188H25.7197V9.99725H27.6051ZM27.6051 11.3934V13.2788H29.4905V11.3934H27.6051ZM25.7435 11.3934H23.8581V13.2788H25.7435V11.3934ZM25.7435 5.65356H27.6289V3.7682H25.7435V5.65356ZM24.3473 5.65356H22.462V7.53893H24.3473V5.65356ZM24.3473 4.25738H26.2327V2.372L24.3473 2.37201V4.25738ZM22.9511 4.2574H21.0658V6.14278L22.9512 6.14277L22.9511 4.2574ZM22.9511 2.86122H24.8365V0.975855L22.9512 0.975849L22.9511 2.86122ZM37.2232 27.0617V25.1763H35.3379V27.0617H37.2232ZM37.2232 27.2168V29.1022H39.1086V27.2168H37.2232ZM35.5168 27.2168V25.3314H33.6314V27.2168H35.5168ZM35.5168 27.8373V29.7227H37.4022V27.8373H35.5168ZM33.9655 27.8373V25.9519H32.0801V27.8373H33.9655ZM33.9655 29.6989H32.0801V31.5843H33.9655V29.6989ZM35.827 29.6989V31.5843H37.7124V29.6989H35.827ZM35.827 29.0784V27.193H33.9417V29.0784H35.827ZM37.3397 29.0784V30.9637H39.225V29.0784H37.3397ZM37.3397 28.7681V26.8827H35.4543V28.7681H37.3397ZM45.7554 28.7681H47.6408V26.8827H45.7554V28.7681ZM45.7554 29.3886H43.8701V31.274H45.7554V29.3886ZM47.6122 29.3886V31.274H49.4976V29.3886H47.6122ZM47.6122 27.527H49.4976V25.6417H47.6122V27.527ZM45.9106 27.527H44.0252V29.4124H45.9106V27.527ZM45.9106 27.0617H47.7959V25.1763H45.9106V27.0617ZM17.0562 38.3862V36.5009H15.1708V38.3862H17.0562ZM17.0562 39.7824V41.6678H18.9415V39.7824H17.0562ZM15.6666 39.7824V37.897H13.7812V39.7824H15.6666ZM15.6666 41.3337V43.2191H17.5519V41.3337H15.6666ZM14.2638 41.3337V39.4484H12.3784V41.3337H14.2638ZM14.2638 43.8158H12.3784V45.7012H14.2638V43.8158ZM15.8151 43.8158H17.7005V41.9305H15.8151V43.8158ZM15.8151 45.3671H13.9297V47.2525H15.8151V45.3671ZM18.4523 45.3671V47.2525H20.3377V45.3671H18.4523ZM18.4523 43.8158V41.9305H16.567V43.8158H18.4523ZM19.8485 43.8158V45.7012H21.7339V43.8158H19.8485ZM19.8485 38.3862H21.7339V36.5009H19.8485V38.3862ZM2.01683 34.1977V32.3123H0.1428L0.1315 34.1863L2.01683 34.1977ZM3.41301 32.9566V31.0713H1.52764V32.9566H3.41301ZM3.41301 34.1977V36.0831H5.29838V34.1977H3.41301ZM4.65406 35.5939V37.4792H6.53943V35.5939H4.65406ZM4.65406 34.3528V32.4675H2.76869V34.3528H4.65406ZM6.05024 34.3528V36.2382H7.96945L7.93531 34.3193L6.05024 34.3528ZM5.42972 33.4142L6.57082 31.9133L6.55494 31.9012L6.5388 31.8895L5.42972 33.4142ZM5.9097 38.9136H4.02433V40.7989H5.9097V38.9136ZM7.29399 38.9136H9.17936V37.0282H7.29399V38.9136ZM7.29399 40.4029H5.40862V42.2883H7.29399V40.4029ZM8.68747 40.4029H10.5729V38.5176H8.68747V40.4029ZM8.68747 42.885V44.7704H10.5729V42.885H8.68747ZM7.13616 42.885V40.9997H5.25079V42.885H7.13616ZM7.13616 44.4364V46.3217H9.02153V44.4364H7.13616ZM4.50828 44.4364H2.62291V46.3217H4.50828V44.4364ZM3.10685 42.9404H1.22149V44.8018L3.08279 44.8256L3.10685 42.9404ZM4.03357 38.6965V40.5819H5.91893V38.6965H4.03357ZM4.03357 37.4554V35.5701H2.1482V37.4554H4.03357ZM5.9097 37.4554H7.79507V35.5701H5.9097V37.4554ZM4.50828 42.9583H6.39365V41.0968L4.53234 41.073L4.50828 42.9583ZM25.4332 46.7463H27.3186V44.8609H25.4332V46.7463ZM3.10685 38.6965V36.8111H1.22149V38.6965H3.10685ZM17.0324 2.8612V5.80871H20.8031V2.8612H17.0324ZM15.6362 5.80871V12.4793H19.4069V5.80871H15.6362ZM17.5216 14.3647H18.9177V10.5939H17.5216V14.3647ZM17.0324 12.4793V16.9781H20.8031V12.4793H17.0324ZM18.9177 15.0927L16.1254 15.0928V18.8635H18.9177V15.0927ZM14.24 16.9781V18.5294H18.0107V16.9781H14.24ZM16.1254 16.6441H14.5741V20.4148H16.1254V16.6441ZM12.6887 18.5294V19.9256H16.4594V18.5294H12.6887ZM14.5741 18.0402H13.333V21.811H14.5741V18.0402ZM11.4476 19.9256V21.3218H15.2184V19.9256H11.4476ZM13.333 19.4364H11.7817V23.2072H13.333V19.4364ZM9.89631 21.3218V23.8039H13.6671V21.3218H9.89631ZM9.14445 26.5725H7.75672V30.3432H9.14445V26.5725ZM5.87135 28.4578V29.854H9.64208V28.4578H5.87135ZM7.75672 27.9686H6.19696V31.7394H7.75672V27.9686ZM4.31159 29.854V31.2502H8.08232V29.854H4.31159ZM6.19696 29.3648H4.80077V33.1356H6.19696V29.3648ZM2.91541 31.2502V32.9566H6.68614V31.2502H2.91541ZM2.9155 32.9753L2.92473 33.9061L6.69528 33.8687L6.68605 32.9379L2.9155 32.9753ZM4.81001 35.7728H5.42371V32.0021H4.81001V35.7728ZM5.44774 35.7726L6.06585 35.7648L6.0178 31.9943L5.39969 32.0022L5.44774 35.7726ZM7.92719 33.8795V32.4912H4.15646V33.8795H7.92719ZM6.04182 34.3766H7.43801V30.6059H6.04182V34.3766ZM9.32338 32.4912V31.0951H5.55264V32.4912H9.32338ZM10.3855 31.4291H14.6934V27.6584H10.3855V31.4291ZM14.6934 31.4291H18.9737V27.6584H14.6934V31.4291ZM17.0883 29.5438V30.3194H20.859V29.5438H17.0883ZM17.0883 30.3194V31.0951H20.859V30.3194H17.0883ZM18.9737 32.9804H19.6741V29.2097H18.9737V32.9804ZM19.6741 32.9804H20.3745V29.2097H19.6741V32.9804ZM18.4891 31.0951V31.7846H22.2598V31.0951H18.4891ZM18.4891 31.7846V32.4742H22.2598V31.7846H18.4891ZM20.254 34.3557L20.9934 34.403L21.2342 30.64L20.4949 30.5927L20.254 34.3557ZM20.9934 34.403L21.7327 34.4503L21.9735 30.6873L21.2342 30.64L20.9934 34.403ZM19.9726 32.7051L20.0204 33.3644L23.7813 33.0918L23.7335 32.4325L19.9726 32.7051ZM20.0204 33.3644L20.0684 34.0241L23.8292 33.7507L23.7813 33.0918L20.0204 33.3644ZM21.9488 35.7728H22.6402V32.0021H21.9488V35.7728ZM22.6402 35.7728H23.3317V32.0021H22.6402V35.7728ZM21.4463 33.8874V36.7574H25.2171V33.8874H21.4463ZM21.4463 36.7574V39.6273H25.2171V36.7574H21.4463ZM23.3317 41.5127H24.0321V37.7419H23.3317V41.5127ZM24.0321 41.5127H24.7325V37.7419H24.0321V41.5127ZM22.8471 39.6273V43.1868H26.6179V39.6273H22.8471ZM22.8471 43.1868V46.7463H26.6179V43.1868H22.8471ZM25.4332 47.9806H24.6576V51.7513H25.4332V47.9806ZM22.7722 49.8659V55.7609H26.543V49.8659H22.7722ZM24.6576 53.8756H24.0321V57.6463H24.6576V53.8756ZM24.0321 53.8756H23.3317V57.6463H24.0321V53.8756ZM21.4463 55.7609V56.459H25.2171V55.7609H21.4463ZM21.4463 56.459V57.1571H25.2171V56.459H21.4463ZM23.3317 55.2717H19.6741V59.0425H23.3317V55.2717ZM19.6741 55.2717H16.0164V59.0425H19.6741V55.2717ZM17.9018 57.1571V56.459H14.131V57.1571H17.9018ZM17.9018 56.459V55.7609H14.131V56.459H17.9018ZM16.0164 53.8756H13.1779V57.6463H16.0164V53.8756ZM15.0633 55.7609V54.2096H11.2925V55.7609H15.0633ZM13.1779 52.3243H10.3855V56.095H13.1779V52.3243ZM10.3855 56.095H10.3883V52.3243H10.3855V56.095ZM12.2737 54.2096V52.8134H8.50293V54.2096H12.2737ZM10.3883 50.9281H9.7128V54.6988H10.3883V50.9281ZM9.7128 50.9281H8.98439V54.6988H9.7128V50.9281ZM8.98439 52.3243H6.04182V56.095H8.98439V52.3243ZM6.03804 50.9281H4.33538V54.6988H6.03804V50.9281ZM6.22075 52.8134V51.5724H2.45001V52.8134H6.22075ZM4.33538 49.687H3.25357V53.4578H4.33538V49.687ZM5.13894 51.5719L5.13483 35.5934L1.36409 35.5944L1.3682 51.5729L5.13894 51.5719ZM3.24946 33.7085H2.00841V37.4792H3.24946V33.7085ZM2.00841 54.5437H3.40921V50.7729H2.00841V54.5437ZM1.52384 52.6583V54.0545H5.29458V52.6583H1.52384ZM3.40921 55.9399H4.8032V52.1691H3.40921V55.9399ZM2.91783 54.0545V55.6058H6.68857V54.0545H2.91783ZM4.8032 57.4912H6.19696V53.7204H4.8032V57.4912ZM4.31159 55.6058V57.002H8.08232V55.6058H4.31159ZM6.19696 58.8874H8.98932V55.1166H6.19696V58.8874ZM7.10395 57.002V58.3982H10.8747V57.002H7.10395ZM8.98932 60.2835H17.3664V56.5128H8.98932V60.2835ZM17.0324 62.7418V64.138H20.8031V62.7418H17.0324ZM18.9177 66.0234H30.4135V62.2527H18.9177V66.0234ZM30.4135 66.0234H41.8772V62.2527H30.4135V66.0234ZM43.7625 64.138V62.5867H39.9918V64.138H43.7625ZM41.8772 64.4721H43.2542V60.7013H41.8772V64.4721ZM43.2542 64.4721H44.6695V60.7013H43.2542V64.4721ZM46.5549 62.5867V61.1905H42.7842V62.5867H46.5549ZM44.6695 63.0759H46.7562V59.3052H44.6695V63.0759ZM46.7562 63.0759H48.8574V59.3052H46.7562V63.0759ZM48.8574 61.6797H49.8782V57.909H48.8574V61.6797ZM49.8782 61.6797H50.7196V57.909H49.8782V61.6797ZM52.605 59.7943V58.3982H48.8343V59.7943H52.605ZM50.7196 60.2835H53.6671V56.5128H50.7196V60.2835ZM55.5525 58.3982V57.002H51.7818V58.3982H55.5525ZM53.6671 58.8874H54.5979V55.1166H53.6671V58.8874ZM56.4833 57.002V55.9161H52.7126V57.002H56.4833ZM54.5979 57.8014H61.4237V54.0307H54.5979V57.8014ZM65.4809 41.4889V38.3862H61.7102V41.4889H65.4809ZM63.5955 36.5009H62.1994V40.2716H63.5955V36.5009ZM64.0847 38.3862V35.5939H60.314V38.3862H64.0847ZM62.1994 33.7085H60.8032V37.4792H62.1994V33.7085ZM62.6885 35.5939V31.2502H58.9178V35.5939H62.6885ZM60.8032 29.3648H59.407V33.1356H60.8032V29.3648ZM61.2924 31.2502V28.4578H57.5216V31.2502H61.2924ZM59.407 26.5725H57.8557V30.3432H59.407V26.5725ZM59.7411 28.4578V27.0617H55.9703V28.4578H59.7411ZM57.8557 25.1763H56.4595V28.947H57.8557V25.1763ZM58.3449 27.0698L58.3576 24.1223L54.5869 24.106L54.5742 27.0535L58.3449 27.0698ZM56.4722 22.2288H55.0633V25.9995H56.4722V22.2288ZM56.9487 24.1142V21.3218H53.178V24.1142H56.9487ZM55.0633 19.4364H53.6671V23.2072H55.0633V19.4364ZM55.5525 21.3218V18.5294H51.7818V21.3218H55.5525ZM53.6671 16.6441H52.271V20.4148H53.6671V16.6441ZM54.1563 18.5294V16.823H50.3856V18.5294H54.1563ZM52.271 14.9376H52.2652V18.7084H52.271V14.9376ZM52.2652 18.7084H52.9738V14.9376H52.2652V18.7084ZM52.9738 18.7084H53.6671V14.9376H52.9738V18.7084ZM55.5525 16.823V15.4268H51.7818V16.823H55.5525ZM53.6671 17.3122H55.066V13.5414H53.6671V17.3122ZM56.9514 15.4235L56.9487 13.8722L53.178 13.8788L53.1806 15.4301L56.9514 15.4235ZM55.0633 15.7609H56.4595V11.9901H55.0633V15.7609ZM56.4839 3.92334H55.3736V7.69408H56.4839V3.92334ZM53.4882 5.80871V12.6344H57.259V5.80871H53.4882ZM55.3736 10.7491H53.9774V14.5198H55.3736V10.7491ZM53.9774 12.3004H52.4261V16.0711H53.9774V12.3004ZM50.541 14.2153L50.552 14.9219L54.3223 14.8628L54.3112 14.1562L50.541 14.2153ZM50.5518 14.8924V15.5819H54.3225V14.8924H50.5518ZM52.4372 13.6966H51.6533V17.4673H52.4372V13.6966ZM51.6533 13.6966H50.8695V17.4673H51.6533V13.6966ZM52.7549 15.5853L52.7601 12.6378L48.9894 12.6311L48.9842 15.5786L52.7549 15.5853ZM54.3115 12.6394L54.3225 8.45093L50.5518 8.44095L50.5407 12.6295L54.3115 12.6394ZM52.4372 10.3313H53.838V6.56057H52.4372V10.3313ZM55.7233 8.44594V5.65358H51.9526V8.44594H55.7233ZM53.838 7.53895H55.0831V3.76821H53.838V7.53895ZM56.9685 5.65358V4.2574H53.1978V5.65358H56.9685ZM55.0831 2.37203H53.6671V6.14277H55.0831V2.37203ZM55.5525 4.2574V2.86122H51.7818V4.2574H55.5525ZM53.6671 0.975849H49.1683L49.1686 4.74658H53.6671V0.975849ZM47.283 2.86163L47.2833 4.25781L51.054 4.25698L51.0537 2.8608L47.283 2.86163ZM49.1686 2.37203H47.7722V6.14277H49.1686V2.37203ZM45.8868 4.2574V5.65358H49.6575V4.2574H45.8868ZM47.7722 3.76821H46.376V7.53895H47.7722V3.76821ZM46.376 5.31952H44.8247V9.09026H46.376V5.31952ZM42.9393 7.20489V11.2383H46.71V7.20489H42.9393ZM44.8247 9.35293H41.722V13.1236H44.8247V9.35293ZM43.6074 11.247L43.6131 10.0059L39.8424 9.98856L39.8367 11.2296L43.6074 11.247ZM41.7278 8.11188H27.6051V11.8826H41.7278V8.11188ZM25.7197 9.99725V11.3934H29.4905V9.99725H25.7197ZM27.6051 9.50807H25.7435V13.2788H27.6051V9.50807ZM27.6289 11.3934V5.65356H23.8581V11.3934H27.6289ZM26.2327 5.65356V4.25738H22.462V5.65356H26.2327ZM24.3473 2.37201L22.9511 2.37203L22.9512 6.14277L24.3473 6.14275V2.37201ZM24.8365 4.2574V2.86122H21.0658V4.2574H24.8365ZM22.9512 0.975849L18.9177 0.975836V4.74657L22.9511 4.74658L22.9512 0.975849ZM35.3379 27.0617V27.2168H39.1086V27.0617H35.3379ZM37.2232 25.3314H36.328V29.1022H37.2232V25.3314ZM36.328 25.3314H35.5168V29.1022H36.328V25.3314ZM33.6314 27.2168V27.8373H37.4022V27.2168H33.6314ZM35.5168 25.9519H33.9655V29.7227H35.5168V25.9519ZM32.0801 27.8373V29.6989H35.8508V27.8373H32.0801ZM33.9655 31.5843H35.827V27.8135H33.9655V31.5843ZM37.7124 29.6989V29.0784H33.9417V29.6989H37.7124ZM35.827 30.9637H37.3397V27.193H35.827V30.9637ZM39.225 29.0784V28.7681H35.4543V29.0784H39.225ZM37.3397 30.6535H43.9804V26.8827H37.3397V30.6535ZM43.9804 30.6535H45.7554V26.8827H43.9804V30.6535ZM43.8701 28.7681V29.3886H47.6408V28.7681H43.8701ZM45.7554 31.274H46.6783V27.5033H45.7554V31.274ZM46.6783 31.274H47.6122V27.5033H46.6783V31.274ZM49.4976 29.3886V28.4578H45.7268V29.3886H49.4976ZM49.4976 28.4578V27.527H45.7268V28.4578H49.4976ZM47.6122 25.6417H45.9106V29.4124H47.6122V25.6417ZM47.7959 27.527V27.0617H44.0252V27.527H47.7959ZM45.9106 25.1763H37.2232V28.947H45.9106V25.1763ZM15.1708 38.3862V39.7824H18.9415V38.3862H15.1708ZM17.0562 37.897H15.6666V41.6678H17.0562V37.897ZM13.7812 39.7824V41.3337H17.5519V39.7824H13.7812ZM15.6666 39.4484H14.2638V43.2191H15.6666V39.4484ZM12.3784 41.3337V43.8158H16.1492V41.3337H12.3784ZM14.2638 45.7012H15.8151V41.9305H14.2638V45.7012ZM15.8151 47.2525H18.4523V43.4818H15.8151V47.2525ZM21.7339 43.8158V38.3862H17.9632V43.8158H21.7339ZM19.8485 36.5009H17.0562V40.2716H19.8485V36.5009ZM9.89631 25.5103V26.9065H13.6671V25.5103H9.89631ZM44.4906 5.65358V7.20489H48.2613V5.65358H44.4906ZM25.7435 3.7682H24.3473V7.53893H25.7435V3.7682ZM18.9177 3.92334H17.5216V7.69408H18.9177V3.92334ZM50.8748 14.5198H52.4261V10.7491H50.8748V14.5198ZM58.3449 13.8812L58.3693 5.81442L54.5986 5.803L54.5741 13.8698L58.3449 13.8812ZM52.092 12.6344V14.1858H55.8628V12.6344H52.092ZM7.25908 26.9065V28.4578H11.0298V26.9065H7.25908ZM11.7817 25.0212H9.14445V28.7919H11.7817V25.0212ZM13.333 23.625C13.3321 23.625 13.3311 23.625 13.3301 23.625C13.3292 23.625 13.3282 23.625 13.3272 23.625C13.3263 23.625 13.3253 23.625 13.3243 23.625C13.3234 23.625 13.3224 23.625 13.3214 23.625C13.3205 23.625 13.3195 23.625 13.3186 23.625C13.3176 23.625 13.3166 23.625 13.3157 23.625C13.3147 23.625 13.3137 23.625 13.3128 23.625C13.3118 23.625 13.3108 23.625 13.3099 23.625C13.3089 23.625 13.3079 23.625 13.307 23.625C13.306 23.625 13.305 23.625 13.3041 23.625C13.3031 23.625 13.3021 23.625 13.3011 23.625C13.3002 23.625 13.2992 23.625 13.2982 23.625C13.2973 23.625 13.2963 23.625 13.2953 23.625C13.2944 23.625 13.2934 23.625 13.2924 23.625C13.2915 23.625 13.2905 23.625 13.2895 23.625C13.2885 23.625 13.2876 23.625 13.2866 23.625C13.2856 23.625 13.2847 23.625 13.2837 23.625C13.2827 23.625 13.2817 23.625 13.2808 23.625C13.2798 23.625 13.2788 23.625 13.2779 23.625C13.2769 23.625 13.2759 23.625 13.2749 23.625C13.274 23.625 13.273 23.625 13.272 23.625C13.271 23.625 13.2701 23.625 13.2691 23.625C13.2681 23.625 13.2671 23.625 13.2662 23.625C13.2652 23.625 13.2642 23.625 13.2632 23.625C13.2623 23.625 13.2613 23.625 13.2603 23.625C13.2593 23.625 13.2584 23.625 13.2574 23.625C13.2564 23.625 13.2554 23.625 13.2545 23.625C13.2535 23.625 13.2525 23.625 13.2515 23.625C13.2505 23.625 13.2496 23.625 13.2486 23.625C13.2476 23.625 13.2466 23.625 13.2457 23.625C13.2447 23.625 13.2437 23.625 13.2427 23.625C13.2417 23.625 13.2408 23.625 13.2398 23.625C13.2388 23.625 13.2378 23.625 13.2368 23.625C13.2359 23.625 13.2349 23.625 13.2339 23.625C13.2329 23.625 13.2319 23.625 13.231 23.625C13.23 23.625 13.229 23.625 13.228 23.625C13.227 23.625 13.2261 23.625 13.2251 23.625C13.2241 23.625 13.2231 23.625 13.2221 23.625C13.2211 23.625 13.2202 23.625 13.2192 23.625C13.2182 23.625 13.2172 23.625 13.2162 23.625C13.2153 23.625 13.2143 23.625 13.2133 23.625C13.2123 23.625 13.2113 23.625 13.2103 23.625C13.2093 23.625 13.2084 23.625 13.2074 23.625C13.2064 23.625 13.2054 23.625 13.2044 23.625C13.2034 23.625 13.2025 23.625 13.2015 23.625C13.2005 23.625 13.1995 23.625 13.1985 23.625C13.1975 23.625 13.1965 23.625 13.1956 23.625C13.1946 23.625 13.1936 23.625 13.1926 23.625C13.1916 23.625 13.1906 23.625 13.1896 23.625C13.1886 23.625 13.1877 23.625 13.1867 23.625C13.1857 23.625 13.1847 23.625 13.1837 23.625C13.1827 23.625 13.1817 23.625 13.1807 23.625C13.1798 23.625 13.1788 23.625 13.1778 23.625C13.1768 23.625 13.1758 23.625 13.1748 23.625C13.1738 23.625 13.1728 23.625 13.1718 23.625C13.1709 23.625 13.1699 23.625 13.1689 23.625C13.1679 23.625 13.1669 23.625 13.1659 23.625C13.1649 23.625 13.1639 23.625 13.1629 23.625C13.1619 23.625 13.1609 23.625 13.16 23.625C13.159 23.625 13.158 23.625 13.157 23.625C13.156 23.625 13.155 23.625 13.154 23.625C13.153 23.625 13.152 23.625 13.151 23.625C13.15 23.625 13.149 23.625 13.148 23.625C13.147 23.625 13.1461 23.625 13.1451 23.625C13.1441 23.625 13.1431 23.625 13.1421 23.625C13.1411 23.625 13.1401 23.625 13.1391 23.625C13.1381 23.625 13.1371 23.625 13.1361 23.625C13.1351 23.625 13.1341 23.625 13.1331 23.625C13.1321 23.625 13.1311 23.625 13.1301 23.625C13.1291 23.625 13.1281 23.625 13.1272 23.625C13.1262 23.625 13.1252 23.625 13.1242 23.625C13.1232 23.625 13.1222 23.625 13.1212 23.625C13.1202 23.625 13.1192 23.625 13.1182 23.625C13.1172 23.625 13.1162 23.625 13.1152 23.625C13.1142 23.625 13.1132 23.625 13.1122 23.625C13.1112 23.625 13.1102 23.625 13.1092 23.625C13.1082 23.625 13.1072 23.625 13.1062 23.625C13.1052 23.625 13.1042 23.625 13.1032 23.625C13.1022 23.625 13.1012 23.625 13.1002 23.625C13.0992 23.625 13.0982 23.625 13.0972 23.625C13.0962 23.625 13.0952 23.625 13.0942 23.625C13.0932 23.625 13.0922 23.625 13.0912 23.625C13.0902 23.625 13.0892 23.625 13.0882 23.625C13.0872 23.625 13.0862 23.625 13.0852 23.625C13.0842 23.625 13.0832 23.625 13.0822 23.625C13.0812 23.625 13.0802 23.625 13.0792 23.625C13.0782 23.625 13.0772 23.625 13.0762 23.625C13.0752 23.625 13.0742 23.625 13.0732 23.625C13.0722 23.625 13.0712 23.625 13.0702 23.625C13.0692 23.625 13.0682 23.625 13.0672 23.625C13.0661 23.625 13.0651 23.625 13.0641 23.625C13.0631 23.625 13.0621 23.625 13.0611 23.625C13.0601 23.625 13.0591 23.625 13.0581 23.625C13.0571 23.625 13.0561 23.625 13.0551 23.625C13.0541 23.625 13.0531 23.625 13.0521 23.625C13.0511 23.625 13.0501 23.625 13.0491 23.625C13.0481 23.625 13.0471 23.625 13.046 23.625C13.045 23.625 13.044 23.625 13.043 23.625C13.042 23.625 13.041 23.625 13.04 23.625C13.039 23.625 13.038 23.625 13.037 23.625C13.036 23.625 13.035 23.625 13.034 23.625C13.033 23.625 13.0319 23.625 13.0309 23.625C13.0299 23.625 13.0289 23.625 13.0279 23.625C13.0269 23.625 13.0259 23.625 13.0249 23.625C13.0239 23.625 13.0229 23.625 13.0219 23.625C13.0209 23.625 13.0198 23.625 13.0188 23.625C13.0178 23.625 13.0168 23.625 13.0158 23.625C13.0148 23.625 13.0138 23.625 13.0128 23.625C13.0118 23.625 13.0108 23.625 13.0097 23.625C13.0087 23.625 13.0077 23.625 13.0067 23.625C13.0057 23.625 13.0047 23.625 13.0037 23.625C13.0027 23.625 13.0017 23.625 13.0007 23.625C12.9996 23.625 12.9986 23.625 12.9976 23.625C12.9966 23.625 12.9956 23.625 12.9946 23.625C12.9936 23.625 12.9926 23.625 12.9915 23.625C12.9905 23.625 12.9895 23.625 12.9885 23.625C12.9875 23.625 12.9865 23.625 12.9855 23.625C12.9845 23.625 12.9834 23.625 12.9824 23.625C12.9814 23.625 12.9804 23.625 12.9794 23.625C12.9784 23.625 12.9774 23.625 12.9764 23.625C12.9753 23.625 12.9743 23.625 12.9733 23.625C12.9723 23.625 12.9713 23.625 12.9703 23.625C12.9693 23.625 12.9682 23.625 12.9672 23.625C12.9662 23.625 12.9652 23.625 12.9642 23.625C12.9632 23.625 12.9622 23.625 12.9611 23.625C12.9601 23.625 12.9591 23.625 12.9581 23.625C12.9571 23.625 12.9561 23.625 12.955 23.625C12.954 23.625 12.953 23.625 12.952 23.625C12.951 23.625 12.95 23.625 12.949 23.625C12.9479 23.625 12.9469 23.625 12.9459 23.625C12.9449 23.625 12.9439 23.625 12.9429 23.625C12.9418 23.625 12.9408 23.625 12.9398 23.625C12.9388 23.625 12.9378 23.625 12.9368 23.625C12.9357 23.625 12.9347 23.625 12.9337 23.625C12.9327 23.625 12.9317 23.625 12.9306 23.625C12.9296 23.625 12.9286 23.625 12.9276 23.625C12.9266 23.625 12.9256 23.625 12.9245 23.625C12.9235 23.625 12.9225 23.625 12.9215 23.625C12.9205 23.625 12.9194 23.625 12.9184 23.625C12.9174 23.625 12.9164 23.625 12.9154 23.625C12.9144 23.625 12.9133 23.625 12.9123 23.625C12.9113 23.625 12.9103 23.625 12.9093 23.625C12.9082 23.625 12.9072 23.625 12.9062 23.625C12.9052 23.625 12.9042 23.625 12.9031 23.625C12.9021 23.625 12.9011 23.625 12.9001 23.625C12.8991 23.625 12.898 23.625 12.897 23.625C12.896 23.625 12.895 23.625 12.894 23.625C12.8929 23.625 12.8919 23.625 12.8909 23.625C12.8899 23.625 12.8888 23.625 12.8878 23.625C12.8868 23.625 12.8858 23.625 12.8848 23.625C12.8837 23.625 12.8827 23.625 12.8817 23.625C12.8807 23.625 12.8797 23.625 12.8786 23.625C12.8776 23.625 12.8766 23.625 12.8756 23.625C12.8745 23.625 12.8735 23.625 12.8725 23.625C12.8715 23.625 12.8705 23.625 12.8694 23.625C12.8684 23.625 12.8674 23.625 12.8664 23.625C12.8653 23.625 12.8643 23.625 12.8633 23.625C12.8623 23.625 12.8612 23.625 12.8602 23.625C12.8592 23.625 12.8582 23.625 12.8572 23.625C12.8561 23.625 12.8551 23.625 12.8541 23.625C12.8531 23.625 12.852 23.625 12.851 23.625C12.85 23.625 12.849 23.625 12.8479 23.625C12.8469 23.625 12.8459 23.625 12.8449 23.625C12.8438 23.625 12.8428 23.625 12.8418 23.625C12.8408 23.625 12.8397 23.625 12.8387 23.625C12.8377 23.625 12.8367 23.625 12.8356 23.625C12.8346 23.625 12.8336 23.625 12.8326 23.625C12.8315 23.625 12.8305 23.625 12.8295 23.625C12.8285 23.625 12.8274 23.625 12.8264 23.625C12.8254 23.625 12.8244 23.625 12.8233 23.625C12.8223 23.625 12.8213 23.625 12.8203 23.625C12.8192 23.625 12.8182 23.625 12.8172 23.625C12.8162 23.625 12.8151 23.625 12.8141 23.625C12.8131 23.625 12.8121 23.625 12.811 23.625C12.81 23.625 12.809 23.625 12.808 23.625C12.8069 23.625 12.8059 23.625 12.8049 23.625C12.8038 23.625 12.8028 23.625 12.8018 23.625C12.8008 23.625 12.7997 23.625 12.7987 23.625C12.7977 23.625 12.7967 23.625 12.7956 23.625C12.7946 23.625 12.7936 23.625 12.7925 23.625C12.7915 23.625 12.7905 23.625 12.7895 23.625C12.7884 23.625 12.7874 23.625 12.7864 23.625C12.7854 23.625 12.7843 23.625 12.7833 23.625C12.7823 23.625 12.7812 23.625 12.7802 23.625C12.7792 23.625 12.7782 23.625 12.7771 23.625C12.7761 23.625 12.7751 23.625 12.774 23.625C12.773 23.625 12.772 23.625 12.771 23.625C12.7699 23.625 12.7689 23.625 12.7679 23.625C12.7668 23.625 12.7658 23.625 12.7648 23.625C12.7638 23.625 12.7627 23.625 12.7617 23.625C12.7607 23.625 12.7596 23.625 12.7586 23.625C12.7576 23.625 12.7566 23.625 12.7555 23.625C12.7545 23.625 12.7535 23.625 12.7524 23.625C12.7514 23.625 12.7504 23.625 12.7494 23.625C12.7483 23.625 12.7473 23.625 12.7463 23.625C12.7452 23.625 12.7442 23.625 12.7432 23.625C12.7421 23.625 12.7411 23.625 12.7401 23.625C12.7391 23.625 12.738 23.625 12.737 23.625C12.736 23.625 12.7349 23.625 12.7339 23.625C12.7329 23.625 12.7318 23.625 12.7308 23.625C12.7298 23.625 12.7288 23.625 12.7277 23.625C12.7267 23.625 12.7257 23.625 12.7246 23.625C12.7236 23.625 12.7226 23.625 12.7215 23.625C12.7205 23.625 12.7195 23.625 12.7185 23.625C12.7174 23.625 12.7164 23.625 12.7154 23.625C12.7143 23.625 12.7133 23.625 12.7123 23.625C12.7112 23.625 12.7102 23.625 12.7092 23.625C12.7081 23.625 12.7071 23.625 12.7061 23.625C12.705 23.625 12.704 23.625 12.703 23.625C12.702 23.625 12.7009 23.625 12.6999 23.625C12.6989 23.625 12.6978 23.625 12.6968 23.625C12.6958 23.625 12.6947 23.625 12.6937 23.625C12.6927 23.625 12.6916 23.625 12.6906 23.625C12.6896 23.625 12.6885 23.625 12.6875 23.625C12.6865 23.625 12.6855 23.625 12.6844 23.625C12.6834 23.625 12.6824 23.625 12.6813 23.625C12.6803 23.625 12.6793 23.625 12.6782 23.625C12.6772 23.625 12.6762 23.625 12.6751 23.625C12.6741 23.625 12.6731 23.625 12.672 23.625C12.671 23.625 12.67 23.625 12.6689 23.625C12.6679 23.625 12.6669 23.625 12.6658 23.625C12.6648 23.625 12.6638 23.625 12.6627 23.625C12.6617 23.625 12.6607 23.625 12.6596 23.625C12.6586 23.625 12.6576 23.625 12.6566 23.625C12.6555 23.625 12.6545 23.625 12.6535 23.625C12.6524 23.625 12.6514 23.625 12.6504 23.625C12.6493 23.625 12.6483 23.625 12.6473 23.625C12.6462 23.625 12.6452 23.625 12.6442 23.625C12.6431 23.625 12.6421 23.625 12.6411 23.625C12.64 23.625 12.639 23.625 12.638 23.625C12.6369 23.625 12.6359 23.625 12.6349 23.625C12.6338 23.625 12.6328 23.625 12.6318 23.625C12.6307 23.625 12.6297 23.625 12.6287 23.625C12.6276 23.625 12.6266 23.625 12.6256 23.625C12.6245 23.625 12.6235 23.625 12.6225 23.625C12.6214 23.625 12.6204 23.625 12.6194 23.625C12.6183 23.625 12.6173 23.625 12.6163 23.625C12.6152 23.625 12.6142 23.625 12.6132 23.625C12.6121 23.625 12.6111 23.625 12.6101 23.625C12.609 23.625 12.608 23.625 12.607 23.625C12.6059 23.625 12.6049 23.625 12.6039 23.625C12.6028 23.625 12.6018 23.625 12.6008 23.625C12.5997 23.625 12.5987 23.625 12.5977 23.625C12.5966 23.625 12.5956 23.625 12.5946 23.625C12.5935 23.625 12.5925 23.625 12.5915 23.625C12.5904 23.625 12.5894 23.625 12.5884 23.625C12.5873 23.625 12.5863 23.625 12.5853 23.625C12.5842 23.625 12.5832 23.625 12.5822 23.625C12.5811 23.625 12.5801 23.625 12.5791 23.625C12.578 23.625 12.577 23.625 12.576 23.625C12.5749 23.625 12.5739 23.625 12.5729 23.625C12.5718 23.625 12.5708 23.625 12.5698 23.625C12.5687 23.625 12.5677 23.625 12.5667 23.625C12.5656 23.625 12.5646 23.625 12.5636 23.625C12.5625 23.625 12.5615 23.625 12.5605 23.625C12.5594 23.625 12.5584 23.625 12.5574 23.625C12.5563 23.625 12.5553 23.625 12.5543 23.625C12.5532 23.625 12.5522 23.625 12.5512 23.625C12.5501 23.625 12.5491 23.625 12.5481 23.625C12.547 23.625 12.546 23.625 12.545 23.625C12.5439 23.625 12.5429 23.625 12.5419 23.625C12.5408 23.625 12.5398 23.625 12.5388 23.625C12.5377 23.625 12.5367 23.625 12.5357 23.625C12.5346 23.625 12.5336 23.625 12.5326 23.625C12.5315 23.625 12.5305 23.625 12.5295 23.625C12.5284 23.625 12.5274 23.625 12.5263 23.625C12.5253 23.625 12.5243 23.625 12.5232 23.625C12.5222 23.625 12.5212 23.625 12.5201 23.625C12.5191 23.625 12.5181 23.625 12.517 23.625C12.516 23.625 12.515 23.625 12.5139 23.625C12.5129 23.625 12.5119 23.625 12.5108 23.625C12.5098 23.625 12.5088 23.625 12.5077 23.625C12.5067 23.625 12.5057 23.625 12.5046 23.625C12.5036 23.625 12.5026 23.625 12.5015 23.625C12.5005 23.625 12.4995 23.625 12.4984 23.625C12.4974 23.625 12.4964 23.625 12.4953 23.625C12.4943 23.625 12.4933 23.625 12.4922 23.625C12.4912 23.625 12.4902 23.625 12.4891 23.625C12.4881 23.625 12.4871 23.625 12.486 23.625C12.485 23.625 12.484 23.625 12.483 23.625C12.4819 23.625 12.4809 23.625 12.4799 23.625C12.4788 23.625 12.4778 23.625 12.4768 23.625C12.4757 23.625 12.4747 23.625 12.4737 23.625C12.4726 23.625 12.4716 23.625 12.4706 23.625C12.4695 23.625 12.4685 23.625 12.4675 23.625C12.4664 23.625 12.4654 23.625 12.4644 23.625C12.4633 23.625 12.4623 23.625 12.4613 23.625C12.4602 23.625 12.4592 23.625 12.4582 23.625C12.4571 23.625 12.4561 23.625 12.4551 23.625C12.454 23.625 12.453 23.625 12.452 23.625C12.4509 23.625 12.4499 23.625 12.4489 23.625C12.4478 23.625 12.4468 23.625 12.4458 23.625C12.4447 23.625 12.4437 23.625 12.4427 23.625C12.4416 23.625 12.4406 23.625 12.4396 23.625C12.4386 23.625 12.4375 23.625 12.4365 23.625C12.4355 23.625 12.4344 23.625 12.4334 23.625C12.4324 23.625 12.4313 23.625 12.4303 23.625C12.4293 23.625 12.4282 23.625 12.4272 23.625C12.4262 23.625 12.4251 23.625 12.4241 23.625C12.4231 23.625 12.422 23.625 12.421 23.625C12.42 23.625 12.4189 23.625 12.4179 23.625C12.4169 23.625 12.4159 23.625 12.4148 23.625C12.4138 23.625 12.4128 23.625 12.4117 23.625C12.4107 23.625 12.4097 23.625 12.4086 23.625C12.4076 23.625 12.4066 23.625 12.4055 23.625C12.4045 23.625 12.4035 23.625 12.4024 23.625C12.4014 23.625 12.4004 23.625 12.3994 23.625C12.3983 23.625 12.3973 23.625 12.3963 23.625C12.3952 23.625 12.3942 23.625 12.3932 23.625C12.3921 23.625 12.3911 23.625 12.3901 23.625C12.389 23.625 12.388 23.625 12.387 23.625C12.386 23.625 12.3849 23.625 12.3839 23.625C12.3829 23.625 12.3818 23.625 12.3808 23.625C12.3798 23.625 12.3787 23.625 12.3777 23.625C12.3767 23.625 12.3757 23.625 12.3746 23.625C12.3736 23.625 12.3726 23.625 12.3715 23.625C12.3705 23.625 12.3695 23.625 12.3684 23.625C12.3674 23.625 12.3664 23.625 12.3654 23.625C12.3643 23.625 12.3633 23.625 12.3623 23.625C12.3612 23.625 12.3602 23.625 12.3592 23.625C12.3582 23.625 12.3571 23.625 12.3561 23.625C12.3551 23.625 12.354 23.625 12.353 23.625C12.352 23.625 12.351 23.625 12.3499 23.625C12.3489 23.625 12.3479 23.625 12.3468 23.625C12.3458 23.625 12.3448 23.625 12.3438 23.625C12.3427 23.625 12.3417 23.625 12.3407 23.625C12.3396 23.625 12.3386 23.625 12.3376 23.625C12.3366 23.625 12.3355 23.625 12.3345 23.625C12.3335 23.625 12.3324 23.625 12.3314 23.625C12.3304 23.625 12.3294 23.625 12.3283 23.625C12.3273 23.625 12.3263 23.625 12.3252 23.625C12.3242 23.625 12.3232 23.625 12.3222 23.625C12.3211 23.625 12.3201 23.625 12.3191 23.625C12.3181 23.625 12.317 23.625 12.316 23.625C12.315 23.625 12.3139 23.625 12.3129 23.625C12.3119 23.625 12.3109 23.625 12.3098 23.625C12.3088 23.625 12.3078 23.625 12.3068 23.625C12.3057 23.625 12.3047 23.625 12.3037 23.625C12.3027 23.625 12.3016 23.625 12.3006 23.625C12.2996 23.625 12.2986 23.625 12.2975 23.625C12.2965 23.625 12.2955 23.625 12.2944 23.625C12.2934 23.625 12.2924 23.625 12.2914 23.625C12.2903 23.625 12.2893 23.625 12.2883 23.625C12.2873 23.625 12.2862 23.625 12.2852 23.625C12.2842 23.625 12.2832 23.625 12.2821 23.625C12.2811 23.625 12.2801 23.625 12.2791 23.625C12.278 23.625 12.277 23.625 12.276 23.625C12.275 23.625 12.2739 23.625 12.2729 23.625C12.2719 23.625 12.2709 23.625 12.2698 23.625C12.2688 23.625 12.2678 23.625 12.2668 23.625C12.2657 23.625 12.2647 23.625 12.2637 23.625C12.2627 23.625 12.2617 23.625 12.2606 23.625C12.2596 23.625 12.2586 23.625 12.2576 23.625C12.2565 23.625 12.2555 23.625 12.2545 23.625C12.2535 23.625 12.2524 23.625 12.2514 23.625C12.2504 23.625 12.2494 23.625 12.2484 23.625C12.2473 23.625 12.2463 23.625 12.2453 23.625C12.2443 23.625 12.2432 23.625 12.2422 23.625C12.2412 23.625 12.2402 23.625 12.2391 23.625C12.2381 23.625 12.2371 23.625 12.2361 23.625C12.2351 23.625 12.234 23.625 12.233 23.625C12.232 23.625 12.231 23.625 12.23 23.625C12.2289 23.625 12.2279 23.625 12.2269 23.625C12.2259 23.625 12.2248 23.625 12.2238 23.625C12.2228 23.625 12.2218 23.625 12.2208 23.625C12.2197 23.625 12.2187 23.625 12.2177 23.625C12.2167 23.625 12.2157 23.625 12.2146 23.625C12.2136 23.625 12.2126 23.625 12.2116 23.625C12.2106 23.625 12.2095 23.625 12.2085 23.625C12.2075 23.625 12.2065 23.625 12.2055 23.625C12.2044 23.625 12.2034 23.625 12.2024 23.625C12.2014 23.625 12.2004 23.625 12.1993 23.625C12.1983 23.625 12.1973 23.625 12.1963 23.625C12.1953 23.625 12.1942 23.625 12.1932 23.625C12.1922 23.625 12.1912 23.625 12.1902 23.625C12.1892 23.625 12.1881 23.625 12.1871 23.625C12.1861 23.625 12.1851 23.625 12.1841 23.625C12.1831 23.625 12.182 23.625 12.181 23.625C12.18 23.625 12.179 23.625 12.178 23.625C12.1769 23.625 12.1759 23.625 12.1749 23.625C12.1739 23.625 12.1729 23.625 12.1719 23.625C12.1708 23.625 12.1698 23.625 12.1688 23.625C12.1678 23.625 12.1668 23.625 12.1658 23.625C12.1647 23.625 12.1637 23.625 12.1627 23.625C12.1617 23.625 12.1607 23.625 12.1597 23.625C12.1587 23.625 12.1576 23.625 12.1566 23.625C12.1556 23.625 12.1546 23.625 12.1536 23.625C12.1526 23.625 12.1515 23.625 12.1505 23.625C12.1495 23.625 12.1485 23.625 12.1475 23.625C12.1465 23.625 12.1455 23.625 12.1444 23.625C12.1434 23.625 12.1424 23.625 12.1414 23.625C12.1404 23.625 12.1394 23.625 12.1384 23.625C12.1373 23.625 12.1363 23.625 12.1353 23.625C12.1343 23.625 12.1333 23.625 12.1323 23.625C12.1313 23.625 12.1303 23.625 12.1292 23.625C12.1282 23.625 12.1272 23.625 12.1262 23.625C12.1252 23.625 12.1242 23.625 12.1232 23.625C12.1222 23.625 12.1211 23.625 12.1201 23.625C12.1191 23.625 12.1181 23.625 12.1171 23.625C12.1161 23.625 12.1151 23.625 12.1141 23.625C12.1131 23.625 12.112 23.625 12.111 23.625C12.11 23.625 12.109 23.625 12.108 23.625C12.107 23.625 12.106 23.625 12.105 23.625C12.104 23.625 12.1029 23.625 12.1019 23.625C12.1009 23.625 12.0999 23.625 12.0989 23.625C12.0979 23.625 12.0969 23.625 12.0959 23.625C12.0949 23.625 12.0939 23.625 12.0929 23.625C12.0918 23.625 12.0908 23.625 12.0898 23.625C12.0888 23.625 12.0878 23.625 12.0868 23.625C12.0858 23.625 12.0848 23.625 12.0838 23.625C12.0828 23.625 12.0818 23.625 12.0808 23.625C12.0797 23.625 12.0787 23.625 12.0777 23.625C12.0767 23.625 12.0757 23.625 12.0747 23.625C12.0737 23.625 12.0727 23.625 12.0717 23.625C12.0707 23.625 12.0697 23.625 12.0687 23.625C12.0677 23.625 12.0667 23.625 12.0657 23.625C12.0646 23.625 12.0636 23.625 12.0626 23.625C12.0616 23.625 12.0606 23.625 12.0596 23.625C12.0586 23.625 12.0576 23.625 12.0566 23.625C12.0556 23.625 12.0546 23.625 12.0536 23.625C12.0526 23.625 12.0516 23.625 12.0506 23.625C12.0496 23.625 12.0486 23.625 12.0476 23.625C12.0466 23.625 12.0456 23.625 12.0446 23.625C12.0435 23.625 12.0425 23.625 12.0415 23.625C12.0405 23.625 12.0395 23.625 12.0385 23.625C12.0375 23.625 12.0365 23.625 12.0355 23.625C12.0345 23.625 12.0335 23.625 12.0325 23.625C12.0315 23.625 12.0305 23.625 12.0295 23.625C12.0285 23.625 12.0275 23.625 12.0265 23.625C12.0255 23.625 12.0245 23.625 12.0235 23.625C12.0225 23.625 12.0215 23.625 12.0205 23.625C12.0195 23.625 12.0185 23.625 12.0175 23.625C12.0165 23.625 12.0155 23.625 12.0145 23.625C12.0135 23.625 12.0125 23.625 12.0115 23.625C12.0105 23.625 12.0095 23.625 12.0085 23.625C12.0075 23.625 12.0065 23.625 12.0055 23.625C12.0045 23.625 12.0035 23.625 12.0025 23.625C12.0015 23.625 12.0005 23.625 11.9995 23.625C11.9985 23.625 11.9975 23.625 11.9965 23.625C11.9955 23.625 11.9945 23.625 11.9935 23.625C11.9925 23.625 11.9915 23.625 11.9906 23.625C11.9896 23.625 11.9886 23.625 11.9876 23.625C11.9866 23.625 11.9856 23.625 11.9846 23.625C11.9836 23.625 11.9826 23.625 11.9816 23.625C11.9806 23.625 11.9796 23.625 11.9786 23.625C11.9776 23.625 11.9766 23.625 11.9756 23.625C11.9746 23.625 11.9736 23.625 11.9726 23.625C11.9716 23.625 11.9706 23.625 11.9697 23.625C11.9687 23.625 11.9677 23.625 11.9667 23.625C11.9657 23.625 11.9647 23.625 11.9637 23.625C11.9627 23.625 11.9617 23.625 11.9607 23.625C11.9597 23.625 11.9587 23.625 11.9577 23.625C11.9567 23.625 11.9558 23.625 11.9548 23.625C11.9538 23.625 11.9528 23.625 11.9518 23.625C11.9508 23.625 11.9498 23.625 11.9488 23.625C11.9478 23.625 11.9468 23.625 11.9458 23.625C11.9449 23.625 11.9439 23.625 11.9429 23.625C11.9419 23.625 11.9409 23.625 11.9399 23.625C11.9389 23.625 11.9379 23.625 11.9369 23.625C11.9359 23.625 11.935 23.625 11.934 23.625C11.933 23.625 11.932 23.625 11.931 23.625C11.93 23.625 11.929 23.625 11.928 23.625C11.9271 23.625 11.9261 23.625 11.9251 23.625C11.9241 23.625 11.9231 23.625 11.9221 23.625C11.9211 23.625 11.9201 23.625 11.9192 23.625C11.9182 23.625 11.9172 23.625 11.9162 23.625C11.9152 23.625 11.9142 23.625 11.9132 23.625C11.9123 23.625 11.9113 23.625 11.9103 23.625C11.9093 23.625 11.9083 23.625 11.9073 23.625C11.9063 23.625 11.9054 23.625 11.9044 23.625C11.9034 23.625 11.9024 23.625 11.9014 23.625C11.9004 23.625 11.8995 23.625 11.8985 23.625C11.8975 23.625 11.8965 23.625 11.8955 23.625C11.8945 23.625 11.8936 23.625 11.8926 23.625C11.8916 23.625 11.8906 23.625 11.8896 23.625C11.8887 23.625 11.8877 23.625 11.8867 23.625C11.8857 23.625 11.8847 23.625 11.8838 23.625C11.8828 23.625 11.8818 23.625 11.8808 23.625C11.8798 23.625 11.8788 23.625 11.8779 23.625C11.8769 23.625 11.8759 23.625 11.8749 23.625C11.874 23.625 11.873 23.625 11.872 23.625C11.871 23.625 11.87 23.625 11.8691 23.625C11.8681 23.625 11.8671 23.625 11.8661 23.625C11.8651 23.625 11.8642 23.625 11.8632 23.625C11.8622 23.625 11.8612 23.625 11.8603 23.625C11.8593 23.625 11.8583 23.625 11.8573 23.625C11.8564 23.625 11.8554 23.625 11.8544 23.625C11.8534 23.625 11.8525 23.625 11.8515 23.625C11.8505 23.625 11.8495 23.625 11.8486 23.625C11.8476 23.625 11.8466 23.625 11.8456 23.625C11.8447 23.625 11.8437 23.625 11.8427 23.625C11.8417 23.625 11.8408 23.625 11.8398 23.625C11.8388 23.625 11.8378 23.625 11.8369 23.625C11.8359 23.625 11.8349 23.625 11.8339 23.625C11.833 23.625 11.832 23.625 11.831 23.625C11.8301 23.625 11.8291 23.625 11.8281 23.625C11.8271 23.625 11.8262 23.625 11.8252 23.625C11.8242 23.625 11.8233 23.625 11.8223 23.625C11.8213 23.625 11.8204 23.625 11.8194 23.625C11.8184 23.625 11.8174 23.625 11.8165 23.625C11.8155 23.625 11.8145 23.625 11.8136 23.625C11.8126 23.625 11.8116 23.625 11.8107 23.625C11.8097 23.625 11.8087 23.625 11.8078 23.625C11.8068 23.625 11.8058 23.625 11.8049 23.625C11.8039 23.625 11.8029 23.625 11.802 23.625C11.801 23.625 11.8 23.625 11.7991 23.625C11.7981 23.625 11.7971 23.625 11.7962 23.625C11.7952 23.625 11.7942 23.625 11.7933 23.625C11.7923 23.625 11.7913 23.625 11.7904 23.625C11.7894 23.625 11.7884 23.625 11.7875 23.625C11.7865 23.625 11.7856 23.625 11.7846 23.625C11.7836 23.625 11.7827 23.625 11.7817 23.625V27.3957C11.7827 27.3957 11.7836 27.3957 11.7846 27.3957C11.7856 27.3957 11.7865 27.3957 11.7875 27.3957C11.7884 27.3957 11.7894 27.3957 11.7904 27.3957C11.7913 27.3957 11.7923 27.3957 11.7933 27.3957C11.7942 27.3957 11.7952 27.3957 11.7962 27.3957C11.7971 27.3957 11.7981 27.3957 11.7991 27.3957C11.8 27.3957 11.801 27.3957 11.802 27.3957C11.8029 27.3957 11.8039 27.3957 11.8049 27.3957C11.8058 27.3957 11.8068 27.3957 11.8078 27.3957C11.8087 27.3957 11.8097 27.3957 11.8107 27.3957C11.8116 27.3957 11.8126 27.3957 11.8136 27.3957C11.8145 27.3957 11.8155 27.3957 11.8165 27.3957C11.8174 27.3957 11.8184 27.3957 11.8194 27.3957C11.8204 27.3957 11.8213 27.3957 11.8223 27.3957C11.8233 27.3957 11.8242 27.3957 11.8252 27.3957C11.8262 27.3957 11.8271 27.3957 11.8281 27.3957C11.8291 27.3957 11.8301 27.3957 11.831 27.3957C11.832 27.3957 11.833 27.3957 11.8339 27.3957C11.8349 27.3957 11.8359 27.3957 11.8369 27.3957C11.8378 27.3957 11.8388 27.3957 11.8398 27.3957C11.8408 27.3957 11.8417 27.3957 11.8427 27.3957C11.8437 27.3957 11.8447 27.3957 11.8456 27.3957C11.8466 27.3957 11.8476 27.3957 11.8486 27.3957C11.8495 27.3957 11.8505 27.3957 11.8515 27.3957C11.8525 27.3957 11.8534 27.3957 11.8544 27.3957C11.8554 27.3957 11.8564 27.3957 11.8573 27.3957C11.8583 27.3957 11.8593 27.3957 11.8603 27.3957C11.8612 27.3957 11.8622 27.3957 11.8632 27.3957C11.8642 27.3957 11.8651 27.3957 11.8661 27.3957C11.8671 27.3957 11.8681 27.3957 11.8691 27.3957C11.87 27.3957 11.871 27.3957 11.872 27.3957C11.873 27.3957 11.874 27.3957 11.8749 27.3957C11.8759 27.3957 11.8769 27.3957 11.8779 27.3957C11.8788 27.3957 11.8798 27.3957 11.8808 27.3957C11.8818 27.3957 11.8828 27.3957 11.8838 27.3957C11.8847 27.3957 11.8857 27.3957 11.8867 27.3957C11.8877 27.3957 11.8887 27.3957 11.8896 27.3957C11.8906 27.3957 11.8916 27.3957 11.8926 27.3957C11.8936 27.3957 11.8945 27.3957 11.8955 27.3957C11.8965 27.3957 11.8975 27.3957 11.8985 27.3957C11.8995 27.3957 11.9004 27.3957 11.9014 27.3957C11.9024 27.3957 11.9034 27.3957 11.9044 27.3957C11.9054 27.3957 11.9063 27.3957 11.9073 27.3957C11.9083 27.3957 11.9093 27.3957 11.9103 27.3957C11.9113 27.3957 11.9123 27.3957 11.9132 27.3957C11.9142 27.3957 11.9152 27.3957 11.9162 27.3957C11.9172 27.3957 11.9182 27.3957 11.9192 27.3957C11.9201 27.3957 11.9211 27.3957 11.9221 27.3957C11.9231 27.3957 11.9241 27.3957 11.9251 27.3957C11.9261 27.3957 11.9271 27.3957 11.928 27.3957C11.929 27.3957 11.93 27.3957 11.931 27.3957C11.932 27.3957 11.933 27.3957 11.934 27.3957C11.935 27.3957 11.9359 27.3957 11.9369 27.3957C11.9379 27.3957 11.9389 27.3957 11.9399 27.3957C11.9409 27.3957 11.9419 27.3957 11.9429 27.3957C11.9439 27.3957 11.9449 27.3957 11.9458 27.3957C11.9468 27.3957 11.9478 27.3957 11.9488 27.3957C11.9498 27.3957 11.9508 27.3957 11.9518 27.3957C11.9528 27.3957 11.9538 27.3957 11.9548 27.3957C11.9558 27.3957 11.9567 27.3957 11.9577 27.3957C11.9587 27.3957 11.9597 27.3957 11.9607 27.3957C11.9617 27.3957 11.9627 27.3957 11.9637 27.3957C11.9647 27.3957 11.9657 27.3957 11.9667 27.3957C11.9677 27.3957 11.9687 27.3957 11.9697 27.3957C11.9706 27.3957 11.9716 27.3957 11.9726 27.3957C11.9736 27.3957 11.9746 27.3957 11.9756 27.3957C11.9766 27.3957 11.9776 27.3957 11.9786 27.3957C11.9796 27.3957 11.9806 27.3957 11.9816 27.3957C11.9826 27.3957 11.9836 27.3957 11.9846 27.3957C11.9856 27.3957 11.9866 27.3957 11.9876 27.3957C11.9886 27.3957 11.9896 27.3957 11.9906 27.3957C11.9915 27.3957 11.9925 27.3957 11.9935 27.3957C11.9945 27.3957 11.9955 27.3957 11.9965 27.3957C11.9975 27.3957 11.9985 27.3957 11.9995 27.3957C12.0005 27.3957 12.0015 27.3957 12.0025 27.3957C12.0035 27.3957 12.0045 27.3957 12.0055 27.3957C12.0065 27.3957 12.0075 27.3957 12.0085 27.3957C12.0095 27.3957 12.0105 27.3957 12.0115 27.3957C12.0125 27.3957 12.0135 27.3957 12.0145 27.3957C12.0155 27.3957 12.0165 27.3957 12.0175 27.3957C12.0185 27.3957 12.0195 27.3957 12.0205 27.3957C12.0215 27.3957 12.0225 27.3957 12.0235 27.3957C12.0245 27.3957 12.0255 27.3957 12.0265 27.3957C12.0275 27.3957 12.0285 27.3957 12.0295 27.3957C12.0305 27.3957 12.0315 27.3957 12.0325 27.3957C12.0335 27.3957 12.0345 27.3957 12.0355 27.3957C12.0365 27.3957 12.0375 27.3957 12.0385 27.3957C12.0395 27.3957 12.0405 27.3957 12.0415 27.3957C12.0425 27.3957 12.0435 27.3957 12.0446 27.3957C12.0456 27.3957 12.0466 27.3957 12.0476 27.3957C12.0486 27.3957 12.0496 27.3957 12.0506 27.3957C12.0516 27.3957 12.0526 27.3957 12.0536 27.3957C12.0546 27.3957 12.0556 27.3957 12.0566 27.3957C12.0576 27.3957 12.0586 27.3957 12.0596 27.3957C12.0606 27.3957 12.0616 27.3957 12.0626 27.3957C12.0636 27.3957 12.0646 27.3957 12.0657 27.3957C12.0667 27.3957 12.0677 27.3957 12.0687 27.3957C12.0697 27.3957 12.0707 27.3957 12.0717 27.3957C12.0727 27.3957 12.0737 27.3957 12.0747 27.3957C12.0757 27.3957 12.0767 27.3957 12.0777 27.3957C12.0787 27.3957 12.0797 27.3957 12.0808 27.3957C12.0818 27.3957 12.0828 27.3957 12.0838 27.3957C12.0848 27.3957 12.0858 27.3957 12.0868 27.3957C12.0878 27.3957 12.0888 27.3957 12.0898 27.3957C12.0908 27.3957 12.0918 27.3957 12.0929 27.3957C12.0939 27.3957 12.0949 27.3957 12.0959 27.3957C12.0969 27.3957 12.0979 27.3957 12.0989 27.3957C12.0999 27.3957 12.1009 27.3957 12.1019 27.3957C12.1029 27.3957 12.104 27.3957 12.105 27.3957C12.106 27.3957 12.107 27.3957 12.108 27.3957C12.109 27.3957 12.11 27.3957 12.111 27.3957C12.112 27.3957 12.1131 27.3957 12.1141 27.3957C12.1151 27.3957 12.1161 27.3957 12.1171 27.3957C12.1181 27.3957 12.1191 27.3957 12.1201 27.3957C12.1211 27.3957 12.1222 27.3957 12.1232 27.3957C12.1242 27.3957 12.1252 27.3957 12.1262 27.3957C12.1272 27.3957 12.1282 27.3957 12.1292 27.3957C12.1303 27.3957 12.1313 27.3957 12.1323 27.3957C12.1333 27.3957 12.1343 27.3957 12.1353 27.3957C12.1363 27.3957 12.1373 27.3957 12.1384 27.3957C12.1394 27.3957 12.1404 27.3957 12.1414 27.3957C12.1424 27.3957 12.1434 27.3957 12.1444 27.3957C12.1455 27.3957 12.1465 27.3957 12.1475 27.3957C12.1485 27.3957 12.1495 27.3957 12.1505 27.3957C12.1515 27.3957 12.1526 27.3957 12.1536 27.3957C12.1546 27.3957 12.1556 27.3957 12.1566 27.3957C12.1576 27.3957 12.1587 27.3957 12.1597 27.3957C12.1607 27.3957 12.1617 27.3957 12.1627 27.3957C12.1637 27.3957 12.1647 27.3957 12.1658 27.3957C12.1668 27.3957 12.1678 27.3957 12.1688 27.3957C12.1698 27.3957 12.1708 27.3957 12.1719 27.3957C12.1729 27.3957 12.1739 27.3957 12.1749 27.3957C12.1759 27.3957 12.1769 27.3957 12.178 27.3957C12.179 27.3957 12.18 27.3957 12.181 27.3957C12.182 27.3957 12.1831 27.3957 12.1841 27.3957C12.1851 27.3957 12.1861 27.3957 12.1871 27.3957C12.1881 27.3957 12.1892 27.3957 12.1902 27.3957C12.1912 27.3957 12.1922 27.3957 12.1932 27.3957C12.1942 27.3957 12.1953 27.3957 12.1963 27.3957C12.1973 27.3957 12.1983 27.3957 12.1993 27.3957C12.2004 27.3957 12.2014 27.3957 12.2024 27.3957C12.2034 27.3957 12.2044 27.3957 12.2055 27.3957C12.2065 27.3957 12.2075 27.3957 12.2085 27.3957C12.2095 27.3957 12.2106 27.3957 12.2116 27.3957C12.2126 27.3957 12.2136 27.3957 12.2146 27.3957C12.2157 27.3957 12.2167 27.3957 12.2177 27.3957C12.2187 27.3957 12.2197 27.3957 12.2208 27.3957C12.2218 27.3957 12.2228 27.3957 12.2238 27.3957C12.2248 27.3957 12.2259 27.3957 12.2269 27.3957C12.2279 27.3957 12.2289 27.3957 12.23 27.3957C12.231 27.3957 12.232 27.3957 12.233 27.3957C12.234 27.3957 12.2351 27.3957 12.2361 27.3957C12.2371 27.3957 12.2381 27.3957 12.2391 27.3957C12.2402 27.3957 12.2412 27.3957 12.2422 27.3957C12.2432 27.3957 12.2443 27.3957 12.2453 27.3957C12.2463 27.3957 12.2473 27.3957 12.2484 27.3957C12.2494 27.3957 12.2504 27.3957 12.2514 27.3957C12.2524 27.3957 12.2535 27.3957 12.2545 27.3957C12.2555 27.3957 12.2565 27.3957 12.2576 27.3957C12.2586 27.3957 12.2596 27.3957 12.2606 27.3957C12.2617 27.3957 12.2627 27.3957 12.2637 27.3957C12.2647 27.3957 12.2657 27.3957 12.2668 27.3957C12.2678 27.3957 12.2688 27.3957 12.2698 27.3957C12.2709 27.3957 12.2719 27.3957 12.2729 27.3957C12.2739 27.3957 12.275 27.3957 12.276 27.3957C12.277 27.3957 12.278 27.3957 12.2791 27.3957C12.2801 27.3957 12.2811 27.3957 12.2821 27.3957C12.2832 27.3957 12.2842 27.3957 12.2852 27.3957C12.2862 27.3957 12.2873 27.3957 12.2883 27.3957C12.2893 27.3957 12.2903 27.3957 12.2914 27.3957C12.2924 27.3957 12.2934 27.3957 12.2944 27.3957C12.2955 27.3957 12.2965 27.3957 12.2975 27.3957C12.2986 27.3957 12.2996 27.3957 12.3006 27.3957C12.3016 27.3957 12.3027 27.3957 12.3037 27.3957C12.3047 27.3957 12.3057 27.3957 12.3068 27.3957C12.3078 27.3957 12.3088 27.3957 12.3098 27.3957C12.3109 27.3957 12.3119 27.3957 12.3129 27.3957C12.3139 27.3957 12.315 27.3957 12.316 27.3957C12.317 27.3957 12.3181 27.3957 12.3191 27.3957C12.3201 27.3957 12.3211 27.3957 12.3222 27.3957C12.3232 27.3957 12.3242 27.3957 12.3252 27.3957C12.3263 27.3957 12.3273 27.3957 12.3283 27.3957C12.3294 27.3957 12.3304 27.3957 12.3314 27.3957C12.3324 27.3957 12.3335 27.3957 12.3345 27.3957C12.3355 27.3957 12.3366 27.3957 12.3376 27.3957C12.3386 27.3957 12.3396 27.3957 12.3407 27.3957C12.3417 27.3957 12.3427 27.3957 12.3438 27.3957C12.3448 27.3957 12.3458 27.3957 12.3468 27.3957C12.3479 27.3957 12.3489 27.3957 12.3499 27.3957C12.351 27.3957 12.352 27.3957 12.353 27.3957C12.354 27.3957 12.3551 27.3957 12.3561 27.3957C12.3571 27.3957 12.3582 27.3957 12.3592 27.3957C12.3602 27.3957 12.3612 27.3957 12.3623 27.3957C12.3633 27.3957 12.3643 27.3957 12.3654 27.3957C12.3664 27.3957 12.3674 27.3957 12.3684 27.3957C12.3695 27.3957 12.3705 27.3957 12.3715 27.3957C12.3726 27.3957 12.3736 27.3957 12.3746 27.3957C12.3757 27.3957 12.3767 27.3957 12.3777 27.3957C12.3787 27.3957 12.3798 27.3957 12.3808 27.3957C12.3818 27.3957 12.3829 27.3957 12.3839 27.3957C12.3849 27.3957 12.386 27.3957 12.387 27.3957C12.388 27.3957 12.389 27.3957 12.3901 27.3957C12.3911 27.3957 12.3921 27.3957 12.3932 27.3957C12.3942 27.3957 12.3952 27.3957 12.3963 27.3957C12.3973 27.3957 12.3983 27.3957 12.3994 27.3957C12.4004 27.3957 12.4014 27.3957 12.4024 27.3957C12.4035 27.3957 12.4045 27.3957 12.4055 27.3957C12.4066 27.3957 12.4076 27.3957 12.4086 27.3957C12.4097 27.3957 12.4107 27.3957 12.4117 27.3957C12.4128 27.3957 12.4138 27.3957 12.4148 27.3957C12.4159 27.3957 12.4169 27.3957 12.4179 27.3957C12.4189 27.3957 12.42 27.3957 12.421 27.3957C12.422 27.3957 12.4231 27.3957 12.4241 27.3957C12.4251 27.3957 12.4262 27.3957 12.4272 27.3957C12.4282 27.3957 12.4293 27.3957 12.4303 27.3957C12.4313 27.3957 12.4324 27.3957 12.4334 27.3957C12.4344 27.3957 12.4355 27.3957 12.4365 27.3957C12.4375 27.3957 12.4386 27.3957 12.4396 27.3957C12.4406 27.3957 12.4416 27.3957 12.4427 27.3957C12.4437 27.3957 12.4447 27.3957 12.4458 27.3957C12.4468 27.3957 12.4478 27.3957 12.4489 27.3957C12.4499 27.3957 12.4509 27.3957 12.452 27.3957C12.453 27.3957 12.454 27.3957 12.4551 27.3957C12.4561 27.3957 12.4571 27.3957 12.4582 27.3957C12.4592 27.3957 12.4602 27.3957 12.4613 27.3957C12.4623 27.3957 12.4633 27.3957 12.4644 27.3957C12.4654 27.3957 12.4664 27.3957 12.4675 27.3957C12.4685 27.3957 12.4695 27.3957 12.4706 27.3957C12.4716 27.3957 12.4726 27.3957 12.4737 27.3957C12.4747 27.3957 12.4757 27.3957 12.4768 27.3957C12.4778 27.3957 12.4788 27.3957 12.4799 27.3957C12.4809 27.3957 12.4819 27.3957 12.483 27.3957C12.484 27.3957 12.485 27.3957 12.486 27.3957C12.4871 27.3957 12.4881 27.3957 12.4891 27.3957C12.4902 27.3957 12.4912 27.3957 12.4922 27.3957C12.4933 27.3957 12.4943 27.3957 12.4953 27.3957C12.4964 27.3957 12.4974 27.3957 12.4984 27.3957C12.4995 27.3957 12.5005 27.3957 12.5015 27.3957C12.5026 27.3957 12.5036 27.3957 12.5046 27.3957C12.5057 27.3957 12.5067 27.3957 12.5077 27.3957C12.5088 27.3957 12.5098 27.3957 12.5108 27.3957C12.5119 27.3957 12.5129 27.3957 12.5139 27.3957C12.515 27.3957 12.516 27.3957 12.517 27.3957C12.5181 27.3957 12.5191 27.3957 12.5201 27.3957C12.5212 27.3957 12.5222 27.3957 12.5232 27.3957C12.5243 27.3957 12.5253 27.3957 12.5263 27.3957C12.5274 27.3957 12.5284 27.3957 12.5295 27.3957C12.5305 27.3957 12.5315 27.3957 12.5326 27.3957C12.5336 27.3957 12.5346 27.3957 12.5357 27.3957C12.5367 27.3957 12.5377 27.3957 12.5388 27.3957C12.5398 27.3957 12.5408 27.3957 12.5419 27.3957C12.5429 27.3957 12.5439 27.3957 12.545 27.3957C12.546 27.3957 12.547 27.3957 12.5481 27.3957C12.5491 27.3957 12.5501 27.3957 12.5512 27.3957C12.5522 27.3957 12.5532 27.3957 12.5543 27.3957C12.5553 27.3957 12.5563 27.3957 12.5574 27.3957C12.5584 27.3957 12.5594 27.3957 12.5605 27.3957C12.5615 27.3957 12.5625 27.3957 12.5636 27.3957C12.5646 27.3957 12.5656 27.3957 12.5667 27.3957C12.5677 27.3957 12.5687 27.3957 12.5698 27.3957C12.5708 27.3957 12.5718 27.3957 12.5729 27.3957C12.5739 27.3957 12.5749 27.3957 12.576 27.3957C12.577 27.3957 12.578 27.3957 12.5791 27.3957C12.5801 27.3957 12.5811 27.3957 12.5822 27.3957C12.5832 27.3957 12.5842 27.3957 12.5853 27.3957C12.5863 27.3957 12.5873 27.3957 12.5884 27.3957C12.5894 27.3957 12.5904 27.3957 12.5915 27.3957C12.5925 27.3957 12.5935 27.3957 12.5946 27.3957C12.5956 27.3957 12.5966 27.3957 12.5977 27.3957C12.5987 27.3957 12.5997 27.3957 12.6008 27.3957C12.6018 27.3957 12.6028 27.3957 12.6039 27.3957C12.6049 27.3957 12.6059 27.3957 12.607 27.3957C12.608 27.3957 12.609 27.3957 12.6101 27.3957C12.6111 27.3957 12.6121 27.3957 12.6132 27.3957C12.6142 27.3957 12.6152 27.3957 12.6163 27.3957C12.6173 27.3957 12.6183 27.3957 12.6194 27.3957C12.6204 27.3957 12.6214 27.3957 12.6225 27.3957C12.6235 27.3957 12.6245 27.3957 12.6256 27.3957C12.6266 27.3957 12.6276 27.3957 12.6287 27.3957C12.6297 27.3957 12.6307 27.3957 12.6318 27.3957C12.6328 27.3957 12.6338 27.3957 12.6349 27.3957C12.6359 27.3957 12.6369 27.3957 12.638 27.3957C12.639 27.3957 12.64 27.3957 12.6411 27.3957C12.6421 27.3957 12.6431 27.3957 12.6442 27.3957C12.6452 27.3957 12.6462 27.3957 12.6473 27.3957C12.6483 27.3957 12.6493 27.3957 12.6504 27.3957C12.6514 27.3957 12.6524 27.3957 12.6535 27.3957C12.6545 27.3957 12.6555 27.3957 12.6566 27.3957C12.6576 27.3957 12.6586 27.3957 12.6596 27.3957C12.6607 27.3957 12.6617 27.3957 12.6627 27.3957C12.6638 27.3957 12.6648 27.3957 12.6658 27.3957C12.6669 27.3957 12.6679 27.3957 12.6689 27.3957C12.67 27.3957 12.671 27.3957 12.672 27.3957C12.6731 27.3957 12.6741 27.3957 12.6751 27.3957C12.6762 27.3957 12.6772 27.3957 12.6782 27.3957C12.6793 27.3957 12.6803 27.3957 12.6813 27.3957C12.6824 27.3957 12.6834 27.3957 12.6844 27.3957C12.6855 27.3957 12.6865 27.3957 12.6875 27.3957C12.6885 27.3957 12.6896 27.3957 12.6906 27.3957C12.6916 27.3957 12.6927 27.3957 12.6937 27.3957C12.6947 27.3957 12.6958 27.3957 12.6968 27.3957C12.6978 27.3957 12.6989 27.3957 12.6999 27.3957C12.7009 27.3957 12.702 27.3957 12.703 27.3957C12.704 27.3957 12.705 27.3957 12.7061 27.3957C12.7071 27.3957 12.7081 27.3957 12.7092 27.3957C12.7102 27.3957 12.7112 27.3957 12.7123 27.3957C12.7133 27.3957 12.7143 27.3957 12.7154 27.3957C12.7164 27.3957 12.7174 27.3957 12.7185 27.3957C12.7195 27.3957 12.7205 27.3957 12.7215 27.3957C12.7226 27.3957 12.7236 27.3957 12.7246 27.3957C12.7257 27.3957 12.7267 27.3957 12.7277 27.3957C12.7288 27.3957 12.7298 27.3957 12.7308 27.3957C12.7318 27.3957 12.7329 27.3957 12.7339 27.3957C12.7349 27.3957 12.736 27.3957 12.737 27.3957C12.738 27.3957 12.7391 27.3957 12.7401 27.3957C12.7411 27.3957 12.7421 27.3957 12.7432 27.3957C12.7442 27.3957 12.7452 27.3957 12.7463 27.3957C12.7473 27.3957 12.7483 27.3957 12.7494 27.3957C12.7504 27.3957 12.7514 27.3957 12.7524 27.3957C12.7535 27.3957 12.7545 27.3957 12.7555 27.3957C12.7566 27.3957 12.7576 27.3957 12.7586 27.3957C12.7596 27.3957 12.7607 27.3957 12.7617 27.3957C12.7627 27.3957 12.7638 27.3957 12.7648 27.3957C12.7658 27.3957 12.7668 27.3957 12.7679 27.3957C12.7689 27.3957 12.7699 27.3957 12.771 27.3957C12.772 27.3957 12.773 27.3957 12.774 27.3957C12.7751 27.3957 12.7761 27.3957 12.7771 27.3957C12.7782 27.3957 12.7792 27.3957 12.7802 27.3957C12.7812 27.3957 12.7823 27.3957 12.7833 27.3957C12.7843 27.3957 12.7854 27.3957 12.7864 27.3957C12.7874 27.3957 12.7884 27.3957 12.7895 27.3957C12.7905 27.3957 12.7915 27.3957 12.7925 27.3957C12.7936 27.3957 12.7946 27.3957 12.7956 27.3957C12.7967 27.3957 12.7977 27.3957 12.7987 27.3957C12.7997 27.3957 12.8008 27.3957 12.8018 27.3957C12.8028 27.3957 12.8038 27.3957 12.8049 27.3957C12.8059 27.3957 12.8069 27.3957 12.808 27.3957C12.809 27.3957 12.81 27.3957 12.811 27.3957C12.8121 27.3957 12.8131 27.3957 12.8141 27.3957C12.8151 27.3957 12.8162 27.3957 12.8172 27.3957C12.8182 27.3957 12.8192 27.3957 12.8203 27.3957C12.8213 27.3957 12.8223 27.3957 12.8233 27.3957C12.8244 27.3957 12.8254 27.3957 12.8264 27.3957C12.8274 27.3957 12.8285 27.3957 12.8295 27.3957C12.8305 27.3957 12.8315 27.3957 12.8326 27.3957C12.8336 27.3957 12.8346 27.3957 12.8356 27.3957C12.8367 27.3957 12.8377 27.3957 12.8387 27.3957C12.8397 27.3957 12.8408 27.3957 12.8418 27.3957C12.8428 27.3957 12.8438 27.3957 12.8449 27.3957C12.8459 27.3957 12.8469 27.3957 12.8479 27.3957C12.849 27.3957 12.85 27.3957 12.851 27.3957C12.852 27.3957 12.8531 27.3957 12.8541 27.3957C12.8551 27.3957 12.8561 27.3957 12.8572 27.3957C12.8582 27.3957 12.8592 27.3957 12.8602 27.3957C12.8612 27.3957 12.8623 27.3957 12.8633 27.3957C12.8643 27.3957 12.8653 27.3957 12.8664 27.3957C12.8674 27.3957 12.8684 27.3957 12.8694 27.3957C12.8705 27.3957 12.8715 27.3957 12.8725 27.3957C12.8735 27.3957 12.8745 27.3957 12.8756 27.3957C12.8766 27.3957 12.8776 27.3957 12.8786 27.3957C12.8797 27.3957 12.8807 27.3957 12.8817 27.3957C12.8827 27.3957 12.8837 27.3957 12.8848 27.3957C12.8858 27.3957 12.8868 27.3957 12.8878 27.3957C12.8888 27.3957 12.8899 27.3957 12.8909 27.3957C12.8919 27.3957 12.8929 27.3957 12.894 27.3957C12.895 27.3957 12.896 27.3957 12.897 27.3957C12.898 27.3957 12.8991 27.3957 12.9001 27.3957C12.9011 27.3957 12.9021 27.3957 12.9031 27.3957C12.9042 27.3957 12.9052 27.3957 12.9062 27.3957C12.9072 27.3957 12.9082 27.3957 12.9093 27.3957C12.9103 27.3957 12.9113 27.3957 12.9123 27.3957C12.9133 27.3957 12.9144 27.3957 12.9154 27.3957C12.9164 27.3957 12.9174 27.3957 12.9184 27.3957C12.9194 27.3957 12.9205 27.3957 12.9215 27.3957C12.9225 27.3957 12.9235 27.3957 12.9245 27.3957C12.9256 27.3957 12.9266 27.3957 12.9276 27.3957C12.9286 27.3957 12.9296 27.3957 12.9306 27.3957C12.9317 27.3957 12.9327 27.3957 12.9337 27.3957C12.9347 27.3957 12.9357 27.3957 12.9368 27.3957C12.9378 27.3957 12.9388 27.3957 12.9398 27.3957C12.9408 27.3957 12.9418 27.3957 12.9429 27.3957C12.9439 27.3957 12.9449 27.3957 12.9459 27.3957C12.9469 27.3957 12.9479 27.3957 12.949 27.3957C12.95 27.3957 12.951 27.3957 12.952 27.3957C12.953 27.3957 12.954 27.3957 12.955 27.3957C12.9561 27.3957 12.9571 27.3957 12.9581 27.3957C12.9591 27.3957 12.9601 27.3957 12.9611 27.3957C12.9622 27.3957 12.9632 27.3957 12.9642 27.3957C12.9652 27.3957 12.9662 27.3957 12.9672 27.3957C12.9682 27.3957 12.9693 27.3957 12.9703 27.3957C12.9713 27.3957 12.9723 27.3957 12.9733 27.3957C12.9743 27.3957 12.9753 27.3957 12.9764 27.3957C12.9774 27.3957 12.9784 27.3957 12.9794 27.3957C12.9804 27.3957 12.9814 27.3957 12.9824 27.3957C12.9834 27.3957 12.9845 27.3957 12.9855 27.3957C12.9865 27.3957 12.9875 27.3957 12.9885 27.3957C12.9895 27.3957 12.9905 27.3957 12.9915 27.3957C12.9926 27.3957 12.9936 27.3957 12.9946 27.3957C12.9956 27.3957 12.9966 27.3957 12.9976 27.3957C12.9986 27.3957 12.9996 27.3957 13.0007 27.3957C13.0017 27.3957 13.0027 27.3957 13.0037 27.3957C13.0047 27.3957 13.0057 27.3957 13.0067 27.3957C13.0077 27.3957 13.0087 27.3957 13.0097 27.3957C13.0108 27.3957 13.0118 27.3957 13.0128 27.3957C13.0138 27.3957 13.0148 27.3957 13.0158 27.3957C13.0168 27.3957 13.0178 27.3957 13.0188 27.3957C13.0198 27.3957 13.0209 27.3957 13.0219 27.3957C13.0229 27.3957 13.0239 27.3957 13.0249 27.3957C13.0259 27.3957 13.0269 27.3957 13.0279 27.3957C13.0289 27.3957 13.0299 27.3957 13.0309 27.3957C13.0319 27.3957 13.033 27.3957 13.034 27.3957C13.035 27.3957 13.036 27.3957 13.037 27.3957C13.038 27.3957 13.039 27.3957 13.04 27.3957C13.041 27.3957 13.042 27.3957 13.043 27.3957C13.044 27.3957 13.045 27.3957 13.046 27.3957C13.0471 27.3957 13.0481 27.3957 13.0491 27.3957C13.0501 27.3957 13.0511 27.3957 13.0521 27.3957C13.0531 27.3957 13.0541 27.3957 13.0551 27.3957C13.0561 27.3957 13.0571 27.3957 13.0581 27.3957C13.0591 27.3957 13.0601 27.3957 13.0611 27.3957C13.0621 27.3957 13.0631 27.3957 13.0641 27.3957C13.0651 27.3957 13.0661 27.3957 13.0672 27.3957C13.0682 27.3957 13.0692 27.3957 13.0702 27.3957C13.0712 27.3957 13.0722 27.3957 13.0732 27.3957C13.0742 27.3957 13.0752 27.3957 13.0762 27.3957C13.0772 27.3957 13.0782 27.3957 13.0792 27.3957C13.0802 27.3957 13.0812 27.3957 13.0822 27.3957C13.0832 27.3957 13.0842 27.3957 13.0852 27.3957C13.0862 27.3957 13.0872 27.3957 13.0882 27.3957C13.0892 27.3957 13.0902 27.3957 13.0912 27.3957C13.0922 27.3957 13.0932 27.3957 13.0942 27.3957C13.0952 27.3957 13.0962 27.3957 13.0972 27.3957C13.0982 27.3957 13.0992 27.3957 13.1002 27.3957C13.1012 27.3957 13.1022 27.3957 13.1032 27.3957C13.1042 27.3957 13.1052 27.3957 13.1062 27.3957C13.1072 27.3957 13.1082 27.3957 13.1092 27.3957C13.1102 27.3957 13.1112 27.3957 13.1122 27.3957C13.1132 27.3957 13.1142 27.3957 13.1152 27.3957C13.1162 27.3957 13.1172 27.3957 13.1182 27.3957C13.1192 27.3957 13.1202 27.3957 13.1212 27.3957C13.1222 27.3957 13.1232 27.3957 13.1242 27.3957C13.1252 27.3957 13.1262 27.3957 13.1272 27.3957C13.1281 27.3957 13.1291 27.3957 13.1301 27.3957C13.1311 27.3957 13.1321 27.3957 13.1331 27.3957C13.1341 27.3957 13.1351 27.3957 13.1361 27.3957C13.1371 27.3957 13.1381 27.3957 13.1391 27.3957C13.1401 27.3957 13.1411 27.3957 13.1421 27.3957C13.1431 27.3957 13.1441 27.3957 13.1451 27.3957C13.1461 27.3957 13.147 27.3957 13.148 27.3957C13.149 27.3957 13.15 27.3957 13.151 27.3957C13.152 27.3957 13.153 27.3957 13.154 27.3957C13.155 27.3957 13.156 27.3957 13.157 27.3957C13.158 27.3957 13.159 27.3957 13.16 27.3957C13.1609 27.3957 13.1619 27.3957 13.1629 27.3957C13.1639 27.3957 13.1649 27.3957 13.1659 27.3957C13.1669 27.3957 13.1679 27.3957 13.1689 27.3957C13.1699 27.3957 13.1709 27.3957 13.1718 27.3957C13.1728 27.3957 13.1738 27.3957 13.1748 27.3957C13.1758 27.3957 13.1768 27.3957 13.1778 27.3957C13.1788 27.3957 13.1798 27.3957 13.1807 27.3957C13.1817 27.3957 13.1827 27.3957 13.1837 27.3957C13.1847 27.3957 13.1857 27.3957 13.1867 27.3957C13.1877 27.3957 13.1886 27.3957 13.1896 27.3957C13.1906 27.3957 13.1916 27.3957 13.1926 27.3957C13.1936 27.3957 13.1946 27.3957 13.1956 27.3957C13.1965 27.3957 13.1975 27.3957 13.1985 27.3957C13.1995 27.3957 13.2005 27.3957 13.2015 27.3957C13.2025 27.3957 13.2034 27.3957 13.2044 27.3957C13.2054 27.3957 13.2064 27.3957 13.2074 27.3957C13.2084 27.3957 13.2093 27.3957 13.2103 27.3957C13.2113 27.3957 13.2123 27.3957 13.2133 27.3957C13.2143 27.3957 13.2153 27.3957 13.2162 27.3957C13.2172 27.3957 13.2182 27.3957 13.2192 27.3957C13.2202 27.3957 13.2211 27.3957 13.2221 27.3957C13.2231 27.3957 13.2241 27.3957 13.2251 27.3957C13.2261 27.3957 13.227 27.3957 13.228 27.3957C13.229 27.3957 13.23 27.3957 13.231 27.3957C13.2319 27.3957 13.2329 27.3957 13.2339 27.3957C13.2349 27.3957 13.2359 27.3957 13.2368 27.3957C13.2378 27.3957 13.2388 27.3957 13.2398 27.3957C13.2408 27.3957 13.2417 27.3957 13.2427 27.3957C13.2437 27.3957 13.2447 27.3957 13.2457 27.3957C13.2466 27.3957 13.2476 27.3957 13.2486 27.3957C13.2496 27.3957 13.2505 27.3957 13.2515 27.3957C13.2525 27.3957 13.2535 27.3957 13.2545 27.3957C13.2554 27.3957 13.2564 27.3957 13.2574 27.3957C13.2584 27.3957 13.2593 27.3957 13.2603 27.3957C13.2613 27.3957 13.2623 27.3957 13.2632 27.3957C13.2642 27.3957 13.2652 27.3957 13.2662 27.3957C13.2671 27.3957 13.2681 27.3957 13.2691 27.3957C13.2701 27.3957 13.271 27.3957 13.272 27.3957C13.273 27.3957 13.274 27.3957 13.2749 27.3957C13.2759 27.3957 13.2769 27.3957 13.2779 27.3957C13.2788 27.3957 13.2798 27.3957 13.2808 27.3957C13.2817 27.3957 13.2827 27.3957 13.2837 27.3957C13.2847 27.3957 13.2856 27.3957 13.2866 27.3957C13.2876 27.3957 13.2885 27.3957 13.2895 27.3957C13.2905 27.3957 13.2915 27.3957 13.2924 27.3957C13.2934 27.3957 13.2944 27.3957 13.2953 27.3957C13.2963 27.3957 13.2973 27.3957 13.2982 27.3957C13.2992 27.3957 13.3002 27.3957 13.3011 27.3957C13.3021 27.3957 13.3031 27.3957 13.3041 27.3957C13.305 27.3957 13.306 27.3957 13.307 27.3957C13.3079 27.3957 13.3089 27.3957 13.3099 27.3957C13.3108 27.3957 13.3118 27.3957 13.3128 27.3957C13.3137 27.3957 13.3147 27.3957 13.3157 27.3957C13.3166 27.3957 13.3176 27.3957 13.3186 27.3957C13.3195 27.3957 13.3205 27.3957 13.3214 27.3957C13.3224 27.3957 13.3234 27.3957 13.3243 27.3957C13.3253 27.3957 13.3263 27.3957 13.3272 27.3957C13.3282 27.3957 13.3292 27.3957 13.3301 27.3957C13.3311 27.3957 13.3321 27.3957 13.333 27.3957V23.625ZM11.4476 23.8039V25.5103H15.2184V23.8039H11.4476ZM11.7817 25.6893H13.333V21.9185H11.7817V25.6893ZM7.92719 54.2045L7.9234 52.8083L4.15268 52.8186L4.15646 54.2147L7.92719 54.2045ZM13.9297 43.8158V45.3671H17.7005V43.8158H13.9297ZM20.3377 45.3671V43.8158H16.567V45.3671H20.3377ZM18.4523 45.7012H19.8485V41.9305H18.4523V45.7012ZM12.2709 31.0951V29.5438H8.50013V31.0951H12.2709ZM7.43801 32.9804H10.3855V29.2097H7.43801V32.9804ZM7.09902 52.8134V54.2096H10.8698V52.8134H7.09902ZM17.3664 64.6272H18.9177V60.8565H17.3664V64.6272ZM15.4811 58.3982V62.7418H19.2518V58.3982H15.4811ZM50.7427 61.1905V59.7943H46.972V61.1905H50.7427ZM61.4237 43.3742H63.5955V39.6035H61.4237V43.3742ZM3.89375 35.6052L3.90217 34.2091L0.1315 34.1863L0.123047 35.5825L3.89375 35.6052ZM3.41301 34.842H4.80077V31.0713H3.41301V34.842ZM2.01683 36.0831H3.41301V32.3123H2.01683V36.0831ZM5.29838 34.1977V32.9566H1.52764V34.1977H5.29838ZM4.65406 33.7085H2.00841V37.4792H4.65406V33.7085ZM6.53943 35.5939V34.3528H2.76869V35.5939H6.53943ZM4.15675 33.9131L4.16517 34.3864L7.93531 34.3193L7.9269 33.846L4.15675 33.9131ZM4.65406 36.2382H6.05024V32.4675H4.65406V36.2382ZM3.69169 34.4813L4.32064 34.9388L6.5388 31.8895L5.90986 31.432L3.69169 34.4813ZM4.28861 34.915L4.90072 35.3804L7.18293 32.3787L6.57082 31.9133L4.28861 34.915ZM4.02433 38.2135V38.9136H7.79507V38.2135H4.02433ZM5.9097 40.7989H6.60185V37.0282H5.9097V40.7989ZM6.60185 40.7989H7.29399V37.0282H6.60185V40.7989ZM5.40862 38.9136V40.4029H9.17936V38.9136H5.40862ZM7.29399 42.2883H8.68747V38.5176H7.29399V42.2883ZM6.80211 40.4029V42.885H10.5729V40.4029H6.80211ZM8.68747 40.9997H7.13616V44.7704H8.68747V40.9997ZM5.25079 42.885V44.4364H9.02153V42.885H5.25079ZM7.13616 42.551H4.50828V46.3217H7.13616V42.551ZM4.99222 42.9404V40.227H1.22149V42.9404H4.99222ZM5.91893 38.6965V37.4554H2.1482V38.6965H5.91893ZM4.03357 39.3408H5.9097V35.5701H4.03357V39.3408ZM4.02433 37.4554V38.2135H7.79507V37.4554H4.02433ZM6.39365 44.4364V42.9583H2.62291V44.4364H6.39365ZM4.53234 41.073L3.13091 41.0552L3.08279 44.8256L4.48422 44.8435L4.53234 41.073ZM24.7325 48.6316H25.4332V44.8609H24.7325V48.6316ZM23.5479 46.7463V49.8659H27.3186V46.7463H23.5479ZM63.3091 55.9161V41.4889H59.5383V55.9161H63.3091ZM0.123047 35.5939V52.6583H3.89378V35.5939H0.123047ZM4.99222 40.227V38.6965H1.22149V40.227H4.99222ZM3.10685 40.5819H4.03357V36.8111H3.10685V40.5819Z" fill="#0D1717"/>
</g>
</svg>
